<?xml version="1.0" encoding="UTF-8"?>
<svg version="1.1" xmlns="http://www.w3.org/2000/svg" width="1080" height="1080">
<path d="M0 0 C1.66317365 -0.16509444 3.3313671 -0.2797791 5 -0.375 C6.3921875 -0.47941406 6.3921875 -0.47941406 7.8125 -0.5859375 C17.13568338 1.12788297 24.58903598 11.30545793 31.05981445 17.80102539 C32.25766964 18.99616648 33.455949 20.19088256 34.65461731 21.38520813 C37.89032049 24.61183793 41.11971888 27.84470825 44.34770608 31.07905507 C47.73321128 34.46964298 51.12361525 37.85532682 54.51322937 41.24180603 C60.20000192 46.92494704 65.88256006 52.61227642 71.56274414 58.30200195 C78.12672244 64.87687894 84.69789571 71.44449894 91.27282172 78.00842673 C96.92592759 83.65245533 102.5751251 89.30037364 108.22107667 94.95155901 C111.58979628 98.32339386 114.9598461 101.69386935 118.33342934 105.0608387 C121.50217159 108.22380121 124.66597657 111.39162097 127.8260479 114.56324577 C128.98570555 115.72554595 130.14706487 116.8861512 131.31024933 118.04492188 C132.89866704 119.62786713 134.48078473 121.2168566 136.06147766 122.80751038 C136.94799169 123.69477845 137.83450571 124.58204653 138.7478838 125.49620152 C143.2679381 130.52138854 144.81302896 134.35411009 144.58984375 141.05859375 C143.4458482 146.76341923 139.6267788 150.6120454 136 155 C134.05764288 157.54343039 132.15699978 160.11750532 130.25 162.6875 C129.21460653 164.06720601 128.17813512 165.4461037 127.140625 166.82421875 C124.08972446 170.87979936 121.04420837 174.93939472 118 179 C115.02607953 182.96683707 112.05121533 186.93293728 109.0703125 190.89453125 C103.00717624 198.95722317 96.99679067 207.05680801 91.02246094 215.18554688 C87.01091236 220.64053458 82.96176697 226.06397619 78.8671875 231.45703125 C75.56569566 235.95341449 72.74142614 239.86936516 71.3125 245.3125 C70.07959184 249.92040816 70.07959184 249.92040816 69 251 C67.86099567 268.27178702 71.5293118 279.44705604 81 294 C82.29662121 296.12198049 83.58829683 298.2469909 84.875 300.375 C91.13457505 310.54064845 97.6480695 320.58544455 105 330 C105.5053125 330.66644531 106.010625 331.33289063 106.53125 332.01953125 C113.80995761 341.54708484 121.65727166 350.63208724 129.734375 359.48828125 C130.97810903 360.86711053 132.21525217 362.25240417 133.42016602 363.6652832 C138.32118784 369.39109145 143.57848057 374.73121377 148.9152832 380.0456543 C150.43491668 381.5599258 151.94912517 383.0794743 153.46289062 384.59960938 C158.26983281 389.40984045 163.12516105 394.11531437 168.29467773 398.53979492 C170.69011927 400.59092389 172.99625085 402.73526128 175.3125 404.875 C184.52769355 413.46134883 184.52769355 413.46134883 194.8203125 420.62890625 C195.89925781 421.30759766 195.89925781 421.30759766 197 422 C197 422.66 197 423.32 197 424 C197.67933594 424.21914063 198.35867188 424.43828125 199.05859375 424.6640625 C202.86115427 426.39112186 205.80018366 428.79594045 209.0625 431.375 C217.53498761 437.90446643 226.51989887 443.34330985 235.76611328 448.69726562 C237.73240093 449.84394441 239.68042302 451.01380668 241.62109375 452.203125 C242.63300781 452.81671875 243.64492188 453.4303125 244.6875 454.0625 C245.93080078 454.82240234 245.93080078 454.82240234 247.19921875 455.59765625 C258.16773109 461.08956131 270.52996227 461.8864651 282.47265625 459.2265625 C290.83026131 456.05449705 297.95781156 450.39270272 305 445 C305.53737793 444.59088379 306.07475586 444.18176758 306.62841797 443.76025391 C309.29455261 441.72762371 311.94927593 439.68065515 314.59765625 437.625 C318.30675475 434.75259753 322.05681672 431.93608579 325.8125 429.125 C326.48394043 428.62242676 327.15538086 428.11985352 327.84716797 427.60205078 C329.21517879 426.57857118 330.58334358 425.55529735 331.95166016 424.53222656 C335.30362658 422.02484381 338.65163889 419.51219398 342 417 C343.32810545 416.00388019 344.65623049 415.00778648 345.984375 414.01171875 C346.64373047 413.51720215 347.30308594 413.02268555 347.98242188 412.51318359 C350.03515625 410.97363281 352.08789063 409.43408203 354.140625 407.89453125 C355.1625293 407.12798218 355.1625293 407.12798218 356.20507812 406.34594727 C357.55762969 405.33169507 358.9104894 404.31785366 360.26367188 403.30444336 C363.31337696 401.01980924 366.35901413 398.73048068 369.390625 396.421875 C372.24348094 394.25714511 375.11547641 392.12224709 378 390 C378.71414063 389.45085937 379.42828125 388.90171875 380.1640625 388.3359375 C384.48096564 385.25734921 388.0355979 384.40764128 393.3125 384.23828125 C402.45355084 386.82913142 409.63809387 396.36127161 416.16748047 402.92456055 C417.37680145 404.13280702 418.58655564 405.34062004 419.79670715 406.54803467 C423.06324322 409.80974845 426.32353605 413.07763647 429.58256674 416.3468473 C432.99893675 419.77203384 436.42061113 423.19191409 439.84158325 426.61250305 C445.57944629 432.35130065 451.31343395 438.09394709 457.04492188 443.83911133 C463.67295403 450.48290047 470.30623026 457.12141654 476.94251144 463.75696534 C484.01293942 470.82671841 491.0795572 477.90027049 498.14505243 484.97495294 C500.18083018 487.01286262 502.21731834 489.05006008 504.25396347 491.08710289 C507.44925853 494.28340113 510.64199567 497.4822329 513.83275414 500.68305969 C515.00499506 501.85822491 516.17808642 503.03254249 517.35207939 504.20595741 C518.95163511 505.80502345 520.54808934 507.40712231 522.14376831 509.01005554 C523.03857847 509.90654155 523.93338863 510.80302755 524.85531425 511.7266798 C528.25327384 515.32844299 529.40065803 517.67343799 529.6875 522.5625 C529.52412461 527.57590457 528.78944702 529.93661875 525.30371094 533.54077148 C524.48277954 534.40113007 523.66184814 535.26148865 522.81604004 536.1479187 C521.87804693 537.0992902 520.93933442 538.04995282 520 539 C518.9854425 540.04467687 517.97159324 541.09004194 516.95837402 542.13601685 C513.48098714 545.71002113 509.96949155 549.24955212 506.453125 552.78515625 C505.4969138 553.74748075 505.4969138 553.74748075 504.52138519 554.72924614 C501.15064896 558.12068276 497.77675899 561.50894629 494.40039062 564.89477539 C490.94835647 568.35788092 487.50817505 571.83251815 484.07048416 575.30985355 C481.39176506 578.01491397 478.70400974 580.71086323 476.01387787 583.40456963 C474.74286172 584.68040112 473.47517186 585.95955672 472.21115875 587.24232674 C454.32935031 605.37304401 431.9101604 620.05566359 406 623 C405.67 623.33 405.34 623.66 405 624 C402.79349344 624.10012401 400.58377614 624.1308118 398.375 624.1328125 C397.71290527 624.13376923 397.05081055 624.13472595 396.36865234 624.13571167 C394.96647039 624.13639326 393.5642853 624.13454042 392.16210938 624.13037109 C390.00904287 624.12502246 387.85618498 624.1303167 385.703125 624.13671875 C384.34374954 624.13605796 382.9843742 624.13477679 381.625 624.1328125 C380.37976563 624.13168457 379.13453125 624.13055664 377.8515625 624.12939453 C375 624 375 624 374 623 C372.46500471 622.69360766 370.92113947 622.43150726 369.375 622.1875 C357.33032283 620.08730439 345.6114626 616.36707511 333.96557617 612.70043945 C331.93611238 612.06206352 329.90471826 611.43013844 327.87304688 610.79882812 C316.44975791 607.23096649 305.09670627 603.55942128 294.25390625 598.453125 C288.99410277 596.10420916 283.62281219 594.03141281 278.25537109 591.94213867 C273.74491618 590.16887693 269.38541498 588.26630619 265.07495117 586.05151367 C262.75340202 584.87503265 260.40536493 583.76847723 258.046875 582.66796875 C249.31371169 578.58290434 240.69774304 574.52184226 232.47265625 569.47265625 C229.71298551 567.82906088 226.87567246 566.4307358 224 565 C221.42048821 563.61340296 218.86488016 562.18582896 216.3125 560.75 C215.60915527 560.35449951 214.90581055 559.95899902 214.18115234 559.55151367 C209.20180701 556.72980884 204.34481405 553.76093709 199.55078125 550.6328125 C196.03895475 548.3848133 192.42649552 546.31986138 188.80078125 544.26171875 C188.20652344 543.84535156 187.61226563 543.42898438 187 543 C187 542.34 187 541.68 187 541 C185.98486328 540.65388672 185.98486328 540.65388672 184.94921875 540.30078125 C181.26419171 538.67546469 178.0933387 536.49240585 174.8125 534.1875 C174.12051514 533.70539062 173.42853027 533.22328125 172.71557617 532.7265625 C170.47215161 531.15789546 168.2356311 529.57975044 166 528 C165.24332031 527.46842285 164.48664063 526.9368457 163.70703125 526.38916016 C154.68863163 520.04068148 145.97763919 513.53585466 137.69921875 506.2421875 C135.07936789 503.94371529 135.07936789 503.94371529 132.14453125 502.3203125 C131.43683594 501.88460938 130.72914063 501.44890625 130 501 C130 500.34 130 499.68 130 499 C129.40904541 498.72671875 128.81809082 498.4534375 128.20922852 498.171875 C126.06919399 497.03670363 124.46719726 495.84251188 122.65234375 494.25 C122.04712891 493.7240625 121.44191406 493.198125 120.81835938 492.65625 C120.19767578 492.1096875 119.57699219 491.563125 118.9375 491 C117.69790296 489.91519268 116.45706251 488.83180417 115.21484375 487.75 C114.66948975 487.27046875 114.12413574 486.7909375 113.56225586 486.296875 C111.81919476 484.80388257 111.81919476 484.80388257 109 483 C109 482.34 109 481.68 109 481 C108.195625 480.6596875 108.195625 480.6596875 107.375 480.3125 C104.17539839 478.54429911 101.70962777 476.46329797 99 474 C99 473.34 99 472.68 99 472 C98.47019531 471.79890625 97.94039062 471.5978125 97.39453125 471.390625 C93.93805099 469.38327268 91.44843125 466.6132027 88.6875 463.75 C83.59063981 458.52183291 83.59063981 458.52183291 78.125 453.6875 C75.05747146 451.1586594 72.58440729 448.29537165 70.015625 445.26953125 C67.61692126 442.56866522 65.07191567 440.03365217 62.5 437.5 C58.77369467 433.81886961 55.20141536 430.06702253 51.80078125 426.08203125 C49.62675798 423.56846422 47.37609512 421.13223771 45.125 418.6875 C41.10619407 414.27646827 37.27134676 409.76264642 33.52734375 405.1171875 C31.64952084 402.78762058 29.73975883 400.48742603 27.81640625 398.1953125 C19.6415869 388.42625298 11.95728719 378.37940376 4.4921875 368.05908203 C3.21160496 366.29199546 1.9222772 364.53218332 0.625 362.77734375 C-3.40799124 357.30287323 -7.24545589 351.72361602 -10.98828125 346.046875 C-12.34851744 343.98671145 -13.72129628 341.93478324 -15.10546875 339.890625 C-18.52599861 334.83363151 -21.76732055 329.78785938 -24.65625 324.41015625 C-26.34549602 321.38031673 -28.16981581 318.44673312 -30 315.5 C-32.37991822 311.65066258 -34.74902095 307.80142368 -37 303.875 C-37.391875 303.19179688 -37.78375 302.50859375 -38.1875 301.8046875 C-39 300 -39 300 -39 297 C-39.66 297 -40.32 297 -41 297 C-41.556875 295.8140625 -42.11375 294.628125 -42.6875 293.40625 C-43.4579271 291.77064192 -44.22879286 290.13524043 -45 288.5 C-45.40210693 287.64664062 -45.80421387 286.79328125 -46.21850586 285.9140625 C-49.23322749 279.5456476 -52.35139929 273.23691365 -55.61132812 266.99023438 C-57.08282252 264.11645698 -58 262.27843695 -58 259 C-58.66 259 -59.32 259 -60 259 C-60.31130859 258.21302734 -60.31130859 258.21302734 -60.62890625 257.41015625 C-62.25956056 253.3096406 -63.90364333 249.21671473 -65.61328125 245.1484375 C-69.51046666 235.85000525 -73.03291299 226.48281373 -76.31225586 216.94995117 C-77.01797888 214.94902475 -77.76378919 212.96690547 -78.51953125 210.984375 C-79.97391957 207.135544 -81.23314311 203.24578446 -82.4375 199.3125 C-82.87365352 197.89581966 -83.30985196 196.47915316 -83.74609375 195.0625 C-83.95862793 194.37027344 -84.17116211 193.67804688 -84.39013672 192.96484375 C-84.92457028 191.24301777 -85.47829749 189.52720471 -86.03515625 187.8125 C-88.56002786 179.96188707 -90.49241674 172.01407298 -92.33789062 163.98168945 C-92.53962891 163.10730225 -92.74136719 162.23291504 -92.94921875 161.33203125 C-93.12799561 160.54546143 -93.30677246 159.7588916 -93.4909668 158.94848633 C-93.94409321 156.93963501 -93.94409321 156.93963501 -95 155 C-95.30526845 150.11107318 -95.29548806 145.21005543 -95.3125 140.3125 C-95.31511841 139.60370697 -95.31773682 138.89491394 -95.32043457 138.16464233 C-95.32454206 127.84734971 -94.68469963 118.7746893 -91 109 C-90.71125 108.01515625 -90.4225 107.0303125 -90.125 106.015625 C-88.38965102 100.15882218 -86.06239375 94.62891649 -83.4375 89.125 C-83.02709473 88.22599976 -83.02709473 88.22599976 -82.60839844 87.30883789 C-75.76442725 73.51791073 -63.83712115 62.383526 -53.06640625 51.66796875 C-51.65637798 50.25591374 -50.2467948 48.84341416 -48.83763123 47.43049622 C-45.91196972 44.50045412 -42.98105794 41.57580119 -40.04614258 38.6550293 C-36.28439061 34.91052601 -32.53648371 31.15249585 -28.79228306 27.39045238 C-25.89726097 24.48461137 -22.99515947 21.58592591 -20.09083366 18.68938637 C-18.70473008 17.30528184 -17.32084554 15.91895134 -15.93924141 14.53035545 C-14.0181642 12.60167796 -12.08776813 10.68284566 -10.15454102 8.76635742 C-9.58775635 8.19350006 -9.02097168 7.6206427 -8.43701172 7.03042603 C-5.68441655 4.32192319 -3.7917797 2.72085887 0 2 C0 1.34 0 0.68 0 0 Z " fill="#439CD6" transform="translate(323,228)"/>
<path d="M0 0 C0.97190277 0.12728485 0.97190277 0.12728485 1.96343994 0.25714111 C53.58080309 7.02866751 103.68159181 21.21876804 151 43 C151.99273926 43.45455566 152.98547852 43.90911133 154.00830078 44.37744141 C189.35522527 60.66261367 222.43664247 80.91853574 253 105 C254.27037109 105.99580078 254.27037109 105.99580078 255.56640625 107.01171875 C266.25357997 115.46882412 276.52796553 124.35249041 286.51171875 133.625 C288.01004029 135.00927606 289.518689 136.38130727 291.03125 137.75 C299.81806742 145.71040453 308.4415045 153.82598028 316.140625 162.86328125 C317.99497962 164.99423078 319.91234843 167.05740976 321.84350586 169.11865234 C327.30213599 174.96481584 332.31393216 181.05374514 337.1953125 187.38671875 C339.05147307 189.79427201 340.93976609 192.16865132 342.8671875 194.51953125 C398.19675676 262.09121778 433.16747068 346.96412088 449 449 C449.16516113 450.23057129 449.33032227 451.46114258 449.50048828 452.72900391 C454.71006407 493.51669604 454.46805439 537.25899374 449 578 C448.91514343 578.64793518 448.83028687 579.29587036 448.74285889 579.96343994 C441.97814468 631.5288758 427.95586821 681.81694573 406 729 C405.29472168 730.53382324 405.29472168 730.53382324 404.57519531 732.09863281 C382.41089777 780.16379533 351.98569913 829.39415883 313.55078125 866.453125 C311.89337921 868.10635222 310.3901415 869.84074578 308.875 871.625 C301.90666573 879.69442547 294.20551489 887.3050882 286.078125 894.203125 C283.9194388 896.06965818 281.82503184 897.99831868 279.73413086 899.94018555 C273.68467693 905.55228353 267.46817787 910.87062204 261 916 C260.38479492 916.49306641 259.76958984 916.98613281 259.13574219 917.49414062 C234.67646142 937.06629853 208.59519864 954.19227426 181 969 C180.13713379 969.46760742 179.27426758 969.93521484 178.38525391 970.41699219 C103.72696264 1010.77210633 20.1248921 1030.55448733 -64.5 1030.3125 C-65.87840772 1030.31027618 -67.25681552 1030.30809973 -68.63522339 1030.30596924 C-88.89791985 1030.26260503 -108.90414811 1029.85195368 -129 1027 C-129.71514771 1026.90054077 -130.43029541 1026.80108154 -131.16711426 1026.6986084 C-182.71180262 1019.5099984 -232.6820069 1005.78104089 -280 984 C-280.99273926 983.54544434 -281.98547852 983.09088867 -283.00830078 982.62255859 C-318.35522527 966.33738633 -351.43664247 946.08146426 -382 922 C-382.84691406 921.33613281 -383.69382812 920.67226563 -384.56640625 919.98828125 C-395.25357997 911.53117588 -405.52796553 902.64750959 -415.51171875 893.375 C-417.01004029 891.99072394 -418.518689 890.61869273 -420.03125 889.25 C-428.81806742 881.28959547 -437.4415045 873.17401971 -445.140625 864.13671875 C-446.99497962 862.00576922 -448.91234843 859.94259024 -450.84350586 857.88134766 C-456.3054046 852.03168349 -461.31998589 845.93925368 -466.203125 839.6015625 C-468.03089455 837.23057473 -469.89171912 834.8951772 -471.796875 832.5859375 C-489.87173482 810.62424305 -505.27165555 786.41173274 -518.72119141 761.37695312 C-519.59784344 759.74749833 -520.48065333 758.12134583 -521.36865234 756.49804688 C-541.9233948 718.86955024 -556.98724012 678.66148343 -567 637 C-567.27392578 635.88044922 -567.54785156 634.76089844 -567.83007812 633.60742188 C-572.28347483 615.24655016 -575.52520126 596.7204522 -578 578 C-578.24991699 576.1432666 -578.24991699 576.1432666 -578.50488281 574.24902344 C-583.71151721 533.46911052 -583.46694562 489.73274505 -578 449 C-577.91514343 448.35206482 -577.83028687 447.70412964 -577.74285889 447.03656006 C-570.97814468 395.4711242 -556.95586821 345.18305427 -535 298 C-534.52981445 296.97745117 -534.05962891 295.95490234 -533.57519531 294.90136719 C-511.41089777 246.83620467 -480.98569913 197.60584117 -442.55078125 160.546875 C-440.89337921 158.89364778 -439.3901415 157.15925422 -437.875 155.375 C-430.90666573 147.30557453 -423.20551489 139.6949118 -415.078125 132.796875 C-412.9194388 130.93034182 -410.82503184 129.00168132 -408.73413086 127.05981445 C-402.68630813 121.44922974 -396.46859845 116.12360445 -390 111 C-389.36884277 110.49629883 -388.73768555 109.99259766 -388.08740234 109.47363281 C-318.1568919 53.77268989 -235.32759617 16.94542366 -129 0 C-127.76942871 -0.16516113 -126.53885742 -0.33032227 -125.27099609 -0.50048828 C-84.48330396 -5.71006407 -40.74100626 -5.46805439 0 0 Z M-127 16 C-128.92489258 16.25740967 -128.92489258 16.25740967 -130.88867188 16.52001953 C-180.31056976 23.16533133 -228.01384279 37.00058065 -273.32568359 57.77587891 C-275.71693361 58.87043136 -278.11604382 59.94440372 -280.51953125 61.01171875 C-292.78628684 66.53147136 -304.38573711 73.2358023 -316 80 C-316.88155762 80.51111328 -317.76311523 81.02222656 -318.67138672 81.54882812 C-335.48954936 91.3341729 -351.61528439 102.08049849 -367 114 C-367.53898926 114.41427246 -368.07797852 114.82854492 -368.63330078 115.25537109 C-381.45757414 125.12103966 -393.65563033 135.62561657 -405.51464844 146.62792969 C-407.04713734 148.04354238 -408.58854517 149.44881317 -410.1328125 150.8515625 C-417.80695016 157.82631232 -425.26291444 164.8722364 -432.02734375 172.74609375 C-433.96436333 174.95928246 -435.95026805 177.12143897 -437.95117188 179.27685547 C-443.55628471 185.32215034 -448.88367457 191.53247884 -454 198 C-454.51433594 198.64710938 -455.02867187 199.29421875 -455.55859375 199.9609375 C-472.30875772 221.08239137 -487.37560087 243.10789951 -500.63378906 266.58496094 C-501.5315468 268.17191939 -502.43439745 269.75600952 -503.34277344 271.33691406 C-516.47080591 294.1887047 -527.10963615 318.20776267 -536 343 C-536.4134668 344.14597656 -536.82693359 345.29195313 -537.25292969 346.47265625 C-554.31964087 394.27518934 -565.01044038 445.71741911 -565.203125 496.5859375 C-565.21013931 497.8339061 -565.21715363 499.08187469 -565.22438049 500.36766052 C-565.24177673 504.37014722 -565.24881435 508.37248365 -565.25 512.375 C-565.25044186 513.05737606 -565.25088371 513.73975212 -565.25133896 514.44280624 C-565.25835837 535.11923145 -564.90201519 555.49053852 -562 576 C-561.82839355 577.28326172 -561.65678711 578.56652344 -561.47998047 579.88867188 C-552.84608695 644.09986572 -532.09180607 706.32003099 -499.52246094 762.37255859 C-498.15880206 764.72594167 -496.81403252 767.08870702 -495.4765625 769.45703125 C-486.21216094 785.72179727 -475.49865914 801.23680291 -464 816 C-463.14444843 817.11191544 -462.28898428 818.22389816 -461.43359375 819.3359375 C-450.00334403 834.11352949 -437.59484152 848.01408933 -424.875 861.6875 C-424.30088379 862.3055249 -423.72676758 862.9235498 -423.13525391 863.56030273 C-417.43357496 869.66597983 -411.62160947 875.53984011 -405.2890625 880.9921875 C-403.06452637 882.94340178 -400.88871892 884.94125321 -398.7199707 886.95410156 C-392.67462539 892.55931261 -386.45364178 897.86503198 -380 903 C-379.48775879 903.41185547 -378.97551758 903.82371094 -378.44775391 904.24804688 C-308.42754184 960.53507138 -222.58365527 998.85703249 -81.51171875 1014.203125 C-80.26233521 1014.21013931 -79.01295166 1014.21715363 -77.72570801 1014.22438049 C-73.71293197 1014.24179716 -69.70030572 1014.24881487 -65.6875 1014.25 C-65.00373417 1014.25044186 -64.31996834 1014.25088371 -63.61548233 1014.25133896 C-42.91959287 1014.25835365 -22.52876507 1013.90474658 -2 1011 C-0.71673828 1010.82839355 0.56652344 1010.65678711 1.88867188 1010.47998047 C67.23217124 1001.69383615 130.06799281 980.26611405 187 947 C187.87575684 946.49178711 188.75151367 945.98357422 189.65380859 945.45996094 C206.4783477 935.67194975 222.60981307 924.92374048 238 913 C238.53898926 912.58572754 239.07797852 912.17145508 239.63330078 911.74462891 C252.45757414 901.87896034 264.65563033 891.37438343 276.51464844 880.37207031 C278.04713734 878.95645762 279.58854517 877.55118683 281.1328125 876.1484375 C288.80695016 869.17368768 296.26291444 862.1277636 303.02734375 854.25390625 C304.96462806 852.04041506 306.95086284 849.87800365 308.9519043 847.72216797 C314.5581599 841.67637577 319.86439403 835.45444356 325 829 C325.41185547 828.48775879 325.82371094 827.97551758 326.24804688 827.44775391 C343.20268367 806.35644069 358.37865367 784.04994144 371.62304688 760.44824219 C372.54749003 758.80456915 373.47858526 757.16462117 374.41601562 755.52832031 C388.00105125 731.80506122 398.95418215 706.77994652 408 681 C408.36399902 679.98679687 408.72799805 678.97359375 409.10302734 677.9296875 C425.87905207 631.08178477 436.01435215 580.24987969 436.203125 530.4140625 C436.21013931 529.1660939 436.21715363 527.91812531 436.22438049 526.63233948 C436.24177673 522.62985278 436.24881435 518.62751635 436.25 514.625 C436.25044186 513.94262394 436.25088371 513.26024788 436.25133896 512.55719376 C436.25835837 491.88076855 435.90201519 471.50946148 433 451 C432.74259033 449.07510742 432.74259033 449.07510742 432.47998047 447.11132812 C423.84608695 382.90013428 403.09180607 320.67996901 370.52246094 264.62744141 C369.15880206 262.27405833 367.81403252 259.91129298 366.4765625 257.54296875 C353.01756956 233.90495224 336.60229185 211.71213072 319 191 C318.49871582 190.40993164 317.99743164 189.81986328 317.48095703 189.21191406 C315.78422948 187.22003854 314.08105167 185.23389368 312.375 183.25 C311.84817627 182.63527832 311.32135254 182.02055664 310.77856445 181.38720703 C307.50828573 177.61322084 304.09478198 174.04718014 300.54003906 170.54052734 C298.82819936 168.82814489 297.24185205 167.04350527 295.6875 165.1875 C289.69275718 158.25187826 283.14796703 151.85779373 276.18359375 145.90234375 C273.99205464 143.99307802 271.85658184 142.02991844 269.7265625 140.05249023 C263.67987399 134.44414828 257.45604732 129.13688203 251 124 C250.48775879 123.58814453 249.97551758 123.17628906 249.44775391 122.75195312 C171.88573776 60.40231186 77.99644596 23.15791465 -47.48828125 12.796875 C-49.36235657 12.78635353 -49.36235657 12.78635353 -51.27429199 12.77561951 C-55.28706803 12.75820284 -59.29969428 12.75118513 -63.3125 12.75 C-63.99626583 12.74955814 -64.68003166 12.74911629 -65.38451767 12.74866104 C-86.08040713 12.74164635 -106.47123493 13.09525342 -127 16 Z " fill="#439CD6" transform="translate(606,27)"/>
</svg>
