<?xml version="1.0" encoding="UTF-8"?>
<svg version="1.1" xmlns="http://www.w3.org/2000/svg" width="1080" height="1080">
<path d="M0 0 C1.0094165 -0.00563965 2.01883301 -0.0112793 3.05883789 -0.01708984 C4.7109729 -0.01101715 4.7109729 -0.01101715 6.39648438 -0.00482178 C8.14336548 -0.01007874 8.14336548 -0.01007874 9.92553711 -0.01544189 C13.78049658 -0.02425446 17.63527299 -0.01841159 21.49023438 -0.01165771 C24.16536691 -0.0130045 26.84049386 -0.01494198 29.515625 -0.01745605 C35.12436919 -0.02109366 40.73306069 -0.01630201 46.34179688 -0.0067749 C52.82428459 0.00410928 59.3066465 0.00058356 65.78913116 -0.01042771 C71.35696743 -0.01950646 76.92476584 -0.020783 82.49260712 -0.01555037 C85.81711744 -0.01243389 89.14155573 -0.01279883 92.46606445 -0.01862335 C96.17212482 -0.0236911 99.87794215 -0.01597452 103.58398438 -0.00482178 C104.68540771 -0.00887024 105.78683105 -0.0129187 106.92163086 -0.01708984 C108.43575562 -0.00863037 108.43575562 -0.00863037 109.98046875 0 C110.85650757 0.00075405 111.73254639 0.0015081 112.63513184 0.002285 C115.18873028 0.27517991 116.74547422 1.0535871 118.99023438 2.25396729 C121.19079062 2.51749069 123.4020672 2.69906451 125.61523438 2.81646729 C131.79578993 3.15674506 131.79578993 3.15674506 133.99023438 4.25396729 C135.81986848 4.45725996 137.65431805 4.61868924 139.49023438 4.75396729 C144.76801215 5.14285617 144.76801215 5.14285617 146.99023438 6.25396729 C148.31932426 6.43442561 149.6540548 6.57455157 150.99023438 6.69146729 C164.84466475 8.10839766 164.84466475 8.10839766 166.99023438 10.25396729 C168.31805316 10.46000813 169.65319333 10.62026318 170.99023438 10.75396729 C174.87912326 11.14285617 174.87912326 11.14285617 175.99023438 12.25396729 C177.98308773 12.70357445 179.98523169 13.1120804 181.99023438 13.50396729 C187.69567922 14.69406007 193.27521877 16.10620116 198.86523438 17.75396729 C199.55359375 17.9553833 200.24195313 18.15679932 200.95117188 18.36431885 C205.08911874 19.60371351 209.11299246 21.03699304 213.14648438 22.58013916 C215.57842411 23.4689307 218.04217201 24.12539131 220.55273438 24.75396729 C224.90905415 25.90288679 228.85674965 27.45026486 232.99023438 29.25396729 C234.5688293 29.72836369 236.15271271 30.1853584 237.74023438 30.62896729 C242.49694629 32.00040168 246.82426389 33.93897622 251.29492188 36.04693604 C255.1134472 37.75697129 258.99777545 39.01041451 262.99023438 40.25396729 C262.99023438 40.91396729 262.99023438 41.57396729 262.99023438 42.25396729 C263.65023437 42.35709229 264.31023438 42.46021729 264.99023438 42.56646729 C270.52165672 43.8340849 275.7419437 46.1218492 280.99023438 48.25396729 C280.99023438 48.91396729 280.99023438 49.57396729 280.99023438 50.25396729 C281.70050781 50.36482666 282.41078125 50.47568604 283.14257812 50.58990479 C291.67570847 52.57979801 299.58818078 58.1065857 307.05664062 62.53521729 C309.84028544 64.16611438 312.65100975 65.72233392 315.49023438 67.25396729 C320.4700095 69.94534864 325.3593736 72.77445139 330.24023438 75.64068604 C333.47541533 77.53859759 336.72912659 79.40106513 339.99023438 81.25396729 C339.99023438 81.91396729 339.99023438 82.57396729 339.99023438 83.25396729 C340.98023438 83.25396729 341.97023438 83.25396729 342.99023438 83.25396729 C342.99023438 83.91396729 342.99023438 84.57396729 342.99023438 85.25396729 C343.51488281 85.32486572 344.03953125 85.39576416 344.58007812 85.46881104 C348.02179754 86.59001947 350.67399037 88.68723269 353.55273438 90.81646729 C354.16826172 91.26393311 354.78378906 91.71139893 355.41796875 92.17242432 C357.27961396 93.52726694 359.13527919 94.88998535 360.99023438 96.25396729 C362.98957074 97.71321031 364.98949971 99.17164203 366.99023438 100.62896729 C367.86292969 101.26834229 368.735625 101.90771729 369.63476562 102.56646729 C371.6168179 103.98644503 373.61949153 105.32397415 375.67773438 106.62896729 C376.44085937 107.16521729 377.20398438 107.70146729 377.99023438 108.25396729 C377.99023438 108.91396729 377.99023438 109.57396729 377.99023438 110.25396729 C380.46523437 111.24396729 380.46523437 111.24396729 382.99023438 112.25396729 C382.99023438 112.91396729 382.99023438 113.57396729 382.99023438 114.25396729 C383.71210937 114.50146729 384.43398438 114.74896729 385.17773438 115.00396729 C388.26630019 116.3766632 390.50034855 117.97750025 392.99023438 120.25396729 C392.99023438 120.91396729 392.99023438 121.57396729 392.99023438 122.25396729 C393.55484375 122.50017822 394.11945312 122.74638916 394.70117188 123.00006104 C397.38919365 124.47250982 399.36340594 126.23701008 401.61523438 128.31646729 C402.48921875 129.1169751 403.36320313 129.91748291 404.26367188 130.74224854 C405.1634375 131.57111572 406.06320312 132.39998291 406.99023438 133.25396729 C408.73774337 134.84004949 410.48766522 136.42347818 412.24023438 138.00396729 C413.0575 138.7426001 413.87476563 139.48123291 414.71679688 140.24224854 C416.64555447 141.94896703 418.60528481 143.58256399 420.61523438 145.19146729 C421.39898438 145.87209229 422.18273437 146.55271729 422.99023438 147.25396729 C422.99023438 147.91396729 422.99023438 148.57396729 422.99023438 149.25396729 C423.65023437 149.25396729 424.31023438 149.25396729 424.99023438 149.25396729 C424.99023438 149.91396729 424.99023438 150.57396729 424.99023438 151.25396729 C425.65023437 151.25396729 426.31023438 151.25396729 426.99023438 151.25396729 C426.99023438 151.91396729 426.99023438 152.57396729 426.99023438 153.25396729 C428.31023438 153.91396729 429.63023437 154.57396729 430.99023438 155.25396729 C430.99023438 155.91396729 430.99023438 156.57396729 430.99023438 157.25396729 C431.65023437 157.25396729 432.31023438 157.25396729 432.99023438 157.25396729 C432.99023438 157.91396729 432.99023438 158.57396729 432.99023438 159.25396729 C433.65023437 159.25396729 434.31023438 159.25396729 434.99023438 159.25396729 C436.36523438 160.61724854 436.36523438 160.61724854 437.99023438 162.56646729 C441.87216507 167.15420356 445.94661909 171.54410771 450.04882812 175.93365479 C451.99023438 178.25396729 451.99023438 178.25396729 451.99023438 180.25396729 C452.65023437 180.25396729 453.31023438 180.25396729 453.99023438 180.25396729 C455.40729939 181.8028523 456.74832934 183.42158262 458.05273438 185.06646729 C459.26509766 186.58433838 459.26509766 186.58433838 460.50195312 188.13287354 C461.32308594 189.16283447 462.14421875 190.19279541 462.99023438 191.25396729 C464.44729903 193.00502374 465.90560802 194.75504561 467.36523438 196.50396729 C471.05513799 201.01675206 474.58418734 205.63286688 478.05273438 210.31646729 C478.54241699 210.97227783 479.03209961 211.62808838 479.53662109 212.30377197 C482.99023438 217.0149308 482.99023438 217.0149308 482.99023438 219.25396729 C483.65023437 219.25396729 484.31023438 219.25396729 484.99023438 219.25396729 C486.36523438 221.16802979 486.36523438 221.16802979 487.99023438 223.87896729 C491.27791318 229.22923195 494.83634527 234.29418278 498.61328125 239.30523682 C501.20348595 242.82852706 502.83531262 246.03626961 503.99023438 250.25396729 C504.65023437 250.25396729 505.31023438 250.25396729 505.99023438 250.25396729 C509.99023438 256.87896729 509.99023438 256.87896729 509.99023438 260.25396729 C510.65023437 260.25396729 511.31023438 260.25396729 511.99023438 260.25396729 C511.99023438 261.57396729 511.99023438 262.89396729 511.99023438 264.25396729 C512.65023437 264.25396729 513.31023438 264.25396729 513.99023438 264.25396729 C514.41433594 265.11377197 514.8384375 265.97357666 515.27539062 266.85943604 C518.26037134 272.87532024 521.28151938 278.85313313 524.49023438 284.75396729 C539.24351895 311.97807761 539.24351895 311.97807761 540.99023438 322.25396729 C541.65023437 322.25396729 542.31023438 322.25396729 542.99023438 322.25396729 C544.30650129 325.87370131 544.99023438 328.34963859 544.99023438 332.25396729 C545.65023437 332.25396729 546.31023438 332.25396729 546.99023438 332.25396729 C547.17199219 332.89463135 547.35375 333.53529541 547.54101562 334.19537354 C548.68700198 338.13874195 549.84553455 341.92236351 551.49023438 345.69146729 C553.14209624 349.61463921 554.16916724 353.52153771 555.24023438 357.63287354 C555.98046837 360.43847757 555.98046837 360.43847757 557.49023438 363.69146729 C558.75871443 366.70410741 559.55565507 369.34526356 560.30273438 372.50396729 C561.59415144 377.96345002 563.24714531 383.24000775 564.99023438 388.56646729 C567.27651037 395.61407675 569.01078438 402.52521552 570.33789062 409.82037354 C570.96795193 413.13668422 571.75517393 416.36567573 572.61523438 419.62896729 C573.88310687 424.51555919 574.50450884 429.23480343 574.99023438 434.25396729 C575.32023437 434.91396729 575.65023438 435.57396729 575.99023438 436.25396729 C576.30350461 439.07339944 576.50053401 441.89374811 576.70898438 444.72271729 C576.84156049 447.24470732 576.84156049 447.24470732 577.99023438 449.25396729 C578.26783873 452.23711251 578.43670886 455.22017928 578.61132812 458.21099854 C578.84327276 461.2095843 578.84327276 461.2095843 579.99804306 463.62394714 C581.05050273 466.41372175 581.24164082 468.40967144 581.24420166 471.3772583 C581.24984131 472.38660431 581.25548096 473.39595032 581.2612915 474.43588257 C581.25724304 475.53213959 581.25319458 476.62839661 581.24902344 477.75787354 C581.25252808 478.92100067 581.25603271 480.08412781 581.25964355 481.28250122 C581.26844595 485.12721729 581.26261683 488.97174934 581.25585938 492.81646729 C581.25720645 495.48777495 581.25914427 498.15907703 581.26165771 500.8303833 C581.26529347 506.42895501 581.26050852 512.02747391 581.25097656 517.6260376 C581.24009273 524.09318938 581.24361859 530.56021505 581.25462937 537.02736378 C581.26371338 542.5858941 581.26498208 548.14438652 581.25975204 553.70292187 C581.25663845 557.02018334 581.25699461 560.33737273 581.26282501 563.65463257 C581.26789884 567.3531957 581.26016759 571.051516 581.24902344 574.75006104 C581.2530719 575.84631805 581.25712036 576.94257507 581.2612915 578.072052 C581.25565186 579.08139801 581.25001221 580.09074402 581.24420166 581.13067627 C581.24344761 582.00449448 581.24269356 582.87831268 581.24191666 583.77861023 C580.95845412 586.56653385 580.08234273 588.68574692 578.99023438 591.25396729 C578.73433192 593.30910145 578.54844464 595.37398294 578.42773438 597.44146729 C578.08841109 603.05761385 578.08841109 603.05761385 576.99023438 605.25396729 C576.7869417 607.08360139 576.62551242 608.91805096 576.49023438 610.75396729 C576.10134549 616.03174506 576.10134549 616.03174506 574.99023438 618.25396729 C574.80977605 619.58305717 574.66965009 620.91778771 574.55273438 622.25396729 C573.135804 636.10839766 573.135804 636.10839766 570.99023438 638.25396729 C570.56643988 640.54062825 570.17768875 642.83379205 569.80273438 645.12896729 C568.52686675 652.45351626 566.51047433 659.38299401 564.18945312 666.43804932 C562.71354563 670.93126518 561.39123452 675.39655926 560.30273438 680.00396729 C559.27700871 684.34080739 557.77543341 688.16288617 555.99023438 692.25396729 C555.46746473 694.08093828 554.96930032 695.91505268 554.49023438 697.75396729 C553.34530809 702.13688822 551.80394638 706.09754394 549.99023438 710.25396729 C548.91988566 713.5676496 547.94060384 716.90408341 546.99023438 720.25396729 C546.33023438 720.25396729 545.67023437 720.25396729 544.99023438 720.25396729 C544.84585938 720.97584229 544.70148437 721.69771729 544.55273438 722.44146729 C544.03190104 725.04563395 543.51106771 727.64980062 542.99023438 730.25396729 C542.33023438 730.25396729 541.67023437 730.25396729 540.99023438 730.25396729 C540.8690625 730.95521729 540.74789062 731.65646729 540.62304688 732.37896729 C538.50020632 742.02347746 533.82470653 750.76741931 529.05273438 759.32281494 C526.91500322 763.20825921 524.86518041 767.14071317 522.80273438 771.06646729 C522.17878784 772.24910156 522.17878784 772.24910156 521.54223633 773.45562744 C518.96178497 778.3583301 516.45209324 783.29063343 513.99023438 788.25396729 C513.33023438 788.25396729 512.67023437 788.25396729 511.99023438 788.25396729 C511.83699707 789.07465698 511.83699707 789.07465698 511.68066406 789.91192627 C508.85053654 799.51214313 501.29423749 808.47962499 495.74023438 816.69146729 C494.33817303 818.77281201 492.93709395 820.85481883 491.53710938 822.93756104 C490.92706055 823.84046875 490.31701172 824.74337646 489.68847656 825.67364502 C488.52725757 827.43801011 487.43082637 829.24627496 486.39355469 831.08624268 C485.93045898 831.8015918 485.46736328 832.51694092 484.99023438 833.25396729 C484.33023438 833.25396729 483.67023437 833.25396729 482.99023438 833.25396729 C482.755625 833.9513501 482.52101563 834.64873291 482.27929688 835.36724854 C480.75254496 838.78624753 478.67932473 841.53354147 476.36523438 844.44146729 C475.91865479 845.01171631 475.4720752 845.58196533 475.01196289 846.16949463 C473.67767976 847.86940321 472.3351686 849.56247933 470.99023438 851.25396729 C470.29027344 852.13955322 469.5903125 853.02513916 468.86914062 853.93756104 C466.9217675 856.3864709 464.95635005 858.82009102 462.99023438 861.25396729 C462.18972656 862.26459229 461.38921875 863.27521729 460.56445312 864.31646729 C459.35208984 865.83240479 459.35208984 865.83240479 458.11523438 867.37896729 C457.3753125 868.30967041 456.63539063 869.24037354 455.87304688 870.19927979 C455.25171875 870.87732666 454.63039063 871.55537354 453.99023438 872.25396729 C453.33023438 872.25396729 452.67023437 872.25396729 451.99023438 872.25396729 C451.78269531 872.77990479 451.57515625 873.30584229 451.36132812 873.84771729 C449.4071289 877.2773091 446.76643746 879.90796714 444.05273438 882.75396729 C442.97937931 883.88773874 441.90771649 885.02311507 440.83789062 886.16021729 C440.33789551 886.69131104 439.83790039 887.22240479 439.32275391 887.76959229 C437.85454373 889.35460277 437.85454373 889.35460277 436.23632812 891.66021729 C435.82511719 892.18615479 435.41390625 892.71209229 434.99023438 893.25396729 C434.33023438 893.25396729 433.67023437 893.25396729 432.99023438 893.25396729 C432.99023438 893.91396729 432.99023438 894.57396729 432.99023438 895.25396729 C432.33023438 895.25396729 431.67023437 895.25396729 430.99023438 895.25396729 C430.74273438 895.87271729 430.49523437 896.49146729 430.24023438 897.12896729 C428.78394798 899.60465415 427.61210931 900.20521731 424.99023438 901.25396729 C424.99023438 901.91396729 424.99023438 902.57396729 424.99023438 903.25396729 C424.33023438 903.25396729 423.67023437 903.25396729 422.99023438 903.25396729 C422.99023438 903.91396729 422.99023438 904.57396729 422.99023438 905.25396729 C421.69726562 906.55865479 421.69726562 906.55865479 419.80273438 908.12896729 C417.01629658 910.48518308 414.29353061 912.88442856 411.63476562 915.38287354 C411.05428467 915.92766357 410.47380371 916.47245361 409.87573242 917.03375244 C408.70853775 918.13280275 407.5445907 919.235313 406.3840332 920.34136963 C402.21047114 924.25396729 402.21047114 924.25396729 399.99023438 924.25396729 C399.99023438 924.91396729 399.99023438 925.57396729 399.99023438 926.25396729 C395.51964614 930.25396729 395.51964614 930.25396729 392.99023438 930.25396729 C392.99023438 930.91396729 392.99023438 931.57396729 392.99023438 932.25396729 C391.34023438 932.91396729 389.69023438 933.57396729 387.99023438 934.25396729 C387.99023438 934.91396729 387.99023438 935.57396729 387.99023438 936.25396729 C386.34023438 936.91396729 384.69023438 937.57396729 382.99023438 938.25396729 C382.99023438 938.91396729 382.99023438 939.57396729 382.99023438 940.25396729 C381.34023438 940.91396729 379.69023438 941.57396729 377.99023438 942.25396729 C377.99023438 942.91396729 377.99023438 943.57396729 377.99023438 944.25396729 C376.66772461 945.40802002 376.66772461 945.40802002 374.79882812 946.68756104 C374.10805176 947.16677002 373.41727539 947.645979 372.70556641 948.13970947 C371.95388184 948.65178955 371.20219727 949.16386963 370.42773438 949.69146729 C368.87071241 950.7667969 367.31474457 951.84365422 365.75976562 952.92193604 C364.96650879 953.47156006 364.17325195 954.02118408 363.35595703 954.58746338 C361.08457785 956.1875082 358.8503564 957.82634926 356.62695312 959.49224854 C355.95027588 959.99893066 355.27359863 960.50561279 354.57641602 961.02764893 C353.28901853 961.99676291 352.00550196 962.97105841 350.72631836 963.95098877 C346.31888156 967.25396729 346.31888156 967.25396729 342.99023438 967.25396729 C342.99023438 967.91396729 342.99023438 968.57396729 342.99023438 969.25396729 C342.42175781 969.55689697 341.85328125 969.85982666 341.26757812 970.17193604 C337.5728214 972.17660371 333.98284352 974.16780885 330.61523438 976.69146729 C326.03521882 980.06345121 321.00733395 982.59900409 315.99023438 985.25396729 C313.8849132 986.37680525 311.78078218 987.50187711 309.67773438 988.62896729 C308.60007812 989.20517822 307.52242187 989.78138916 306.41210938 990.37506104 C303.97989506 991.71055771 301.58203332 993.0678405 299.19335938 994.47662354 C298.56469971 994.84545654 297.93604004 995.21428955 297.28833008 995.59429932 C296.07403157 996.31035462 294.86398545 997.03368506 293.65893555 997.76519775 C290.37758331 999.69732079 288.92582473 1000.25396729 284.99023438 1000.25396729 C284.99023438 1000.91396729 284.99023438 1001.57396729 284.99023438 1002.25396729 C283.67023437 1002.25396729 282.35023438 1002.25396729 280.99023438 1002.25396729 C280.99023438 1002.91396729 280.99023438 1003.57396729 280.99023438 1004.25396729 C279.79398438 1004.68709229 278.59773437 1005.12021729 277.36523438 1005.56646729 C274.6868647 1006.56020868 272.28906085 1007.61803816 269.74023438 1008.94146729 C266.99023438 1010.25396729 266.99023438 1010.25396729 262.99023438 1010.25396729 C262.99023438 1010.91396729 262.99023438 1011.57396729 262.99023438 1012.25396729 C262.06082031 1012.5801001 261.13140625 1012.90623291 260.17382812 1013.24224854 C258.31951172 1013.89773682 258.31951172 1013.89773682 256.42773438 1014.56646729 C255.20957031 1014.9957251 253.99140625 1015.42498291 252.73632812 1015.86724854 C250.29782325 1016.76992761 247.8807956 1017.73369109 245.49414062 1018.76568604 C240.66267848 1020.81784554 235.70179628 1022.36346386 230.70898438 1023.97271729 C226.97345732 1025.20576852 226.97345732 1025.20576852 223.39257812 1026.81646729 C220.26357538 1028.13847993 217.35744455 1029.00874405 214.05273438 1029.75396729 C209.90078541 1030.69276598 206.05460642 1031.94918554 202.09399414 1033.47369385 C198.58786845 1034.77409743 195.01480935 1035.82719146 191.42773438 1036.87896729 C190.71166016 1037.09552979 189.99558594 1037.31209229 189.2578125 1037.53521729 C185.85242392 1038.5391717 182.54904636 1039.37799225 179.02539062 1039.83990479 C176.11770509 1039.92481739 176.11770509 1039.92481739 174.99023438 1041.25396729 C172.93294268 1041.5732022 170.87409917 1041.76558081 168.80273438 1041.97271729 C166.97348107 1042.07394772 166.97348107 1042.07394772 165.99023438 1043.25396729 C164.60390963 1043.5372009 163.20663267 1043.76743731 161.80664062 1043.97271729 C160.96166016 1044.10033447 160.11667969 1044.22795166 159.24609375 1044.35943604 C158.35728516 1044.48963135 157.46847656 1044.61982666 156.55273438 1044.75396729 C154.80358117 1045.01130811 153.05485692 1045.2715868 151.30664062 1045.53521729 C150.52748291 1045.64929932 149.7483252 1045.76338135 148.94555664 1045.88092041 C146.92089889 1046.17543924 146.92089889 1046.17543924 144.99023438 1047.25396729 C142.17080222 1047.56723752 139.35045356 1047.76426692 136.52148438 1047.97271729 C133.99949434 1048.1052934 133.99949434 1048.1052934 131.99023438 1049.25396729 C128.71390072 1049.53214656 125.43769291 1049.7008854 122.15429688 1049.87506104 C119.10491633 1050.04587003 119.10491633 1050.04587003 117.10559082 1051.26177597 C114.56760585 1052.45219787 112.77757589 1052.50552696 109.98046875 1052.50793457 C108.97105225 1052.51357422 107.96163574 1052.51921387 106.92163086 1052.52502441 C105.82020752 1052.52097595 104.71878418 1052.51692749 103.58398438 1052.51275635 C102.41939697 1052.51626099 101.25480957 1052.51976562 100.05493164 1052.52337646 C96.19997217 1052.53218903 92.34519576 1052.52634616 88.49023438 1052.51959229 C85.81510184 1052.52093907 83.13997489 1052.52287655 80.46484375 1052.52539062 C74.85609956 1052.52902823 69.24740806 1052.52423658 63.63867188 1052.51470947 C57.15618416 1052.50382529 50.67382225 1052.50735101 44.19133759 1052.51836228 C38.62350132 1052.52744103 33.05570291 1052.52871757 27.48786163 1052.52348495 C24.16335131 1052.52036847 20.83891302 1052.5207334 17.5144043 1052.52655792 C13.80834393 1052.53162567 10.1025266 1052.52390909 6.39648438 1052.51275635 C5.29506104 1052.51680481 4.1936377 1052.52085327 3.05883789 1052.52502441 C2.04942139 1052.51938477 1.04000488 1052.51374512 0 1052.50793457 C-0.87603882 1052.50718052 -1.75207764 1052.50642647 -2.65466309 1052.50564957 C-5.20826153 1052.23275466 -6.76500547 1051.45434747 -9.00976562 1050.25396729 C-11.21032187 1049.99044388 -13.42159845 1049.80887006 -15.63476562 1049.69146729 C-21.81532118 1049.35118951 -21.81532118 1049.35118951 -24.00976562 1048.25396729 C-25.67249266 1048.05174373 -27.34030747 1047.88985341 -29.00976562 1047.75396729 C-33.7875434 1047.3650784 -33.7875434 1047.3650784 -36.00976562 1046.25396729 C-37.50556166 1046.05303946 -39.00673287 1045.89060663 -40.50976562 1045.75396729 C-44.7875434 1045.3650784 -44.7875434 1045.3650784 -47.00976562 1044.25396729 C-49.34053906 1043.94604859 -51.67218459 1043.74501455 -54.01367188 1043.53521729 C-56.00976562 1043.25396729 -56.00976562 1043.25396729 -57.00976562 1042.25396729 C-58.74226562 1042.06834229 -58.74226562 1042.06834229 -60.50976562 1041.87896729 C-63.51671168 1041.53486254 -66.16004267 1040.95531103 -69.00976562 1039.94146729 C-73.15620177 1038.46670391 -77.35918416 1037.40057993 -81.63476562 1036.37896729 C-88.40910535 1034.74490767 -94.9402418 1032.6855831 -101.52539062 1030.41412354 C-104.68933939 1029.36065629 -107.84462536 1028.46204741 -111.07226562 1027.62896729 C-115.03796147 1026.59088808 -118.35209155 1025.12171575 -122.00976562 1023.25396729 C-124.51942183 1022.44819138 -127.04716882 1021.72521177 -129.58007812 1020.99615479 C-132.13354773 1020.21615603 -134.54687768 1019.23008636 -136.97851562 1018.12896729 C-139.72374878 1016.94640531 -142.52252321 1015.92559997 -145.32226562 1014.87896729 C-150.30354195 1012.9824263 -155.01262081 1010.82669909 -159.74023438 1008.37506104 C-162.42307006 1007.04980485 -165.15380092 1006.04025474 -167.96948242 1005.03912354 C-169.93902405 1004.28119056 -171.78428605 1003.42228994 -173.66601562 1002.46881104 C-174.36355957 1002.11536621 -175.06110352 1001.76192139 -175.77978516 1001.39776611 C-195.84522763 991.10582414 -195.84522763 991.10582414 -204.78710938 985.57037354 C-208.73941234 983.22955438 -212.87219657 981.24352177 -217.00976562 979.25396729 C-217.00976562 978.59396729 -217.00976562 977.93396729 -217.00976562 977.25396729 C-217.54085937 977.15986572 -218.07195312 977.06576416 -218.61914062 976.96881104 C-221.79384864 976.01951109 -224.39703262 974.47948006 -227.25976562 972.81646729 C-228.33742188 972.19900635 -229.41507813 971.58154541 -230.52539062 970.94537354 C-231.34523437 970.38720947 -232.16507813 969.82904541 -233.00976562 969.25396729 C-233.00976562 968.59396729 -233.00976562 967.93396729 -233.00976562 967.25396729 C-233.84507812 967.09927979 -233.84507812 967.09927979 -234.69726562 966.94146729 C-237.48667573 966.1121832 -239.62367203 964.91097673 -242.00976562 963.25396729 C-242.00976562 962.59396729 -242.00976562 961.93396729 -242.00976562 961.25396729 C-242.73164063 960.99615479 -243.45351562 960.73834229 -244.19726562 960.47271729 C-247.15612103 959.19054661 -249.42485205 957.6768908 -252.00976562 955.75396729 C-253.43095703 954.70015869 -253.43095703 954.70015869 -254.88085938 953.62506104 C-258.86381479 950.60676648 -262.82943935 947.56633635 -266.76953125 944.49224854 C-269.75144681 942.16077918 -269.75144681 942.16077918 -273.00976562 940.25396729 C-273.00976562 939.59396729 -273.00976562 938.93396729 -273.00976562 938.25396729 C-274.65976562 937.59396729 -276.30976563 936.93396729 -278.00976562 936.25396729 C-278.00976562 935.59396729 -278.00976562 934.93396729 -278.00976562 934.25396729 C-279.65976562 933.59396729 -281.30976563 932.93396729 -283.00976562 932.25396729 C-283.00976562 931.59396729 -283.00976562 930.93396729 -283.00976562 930.25396729 C-283.60789062 929.96521729 -284.20601562 929.67646729 -284.82226562 929.37896729 C-287.00976562 928.25396729 -287.00976562 928.25396729 -290.00976562 926.25396729 C-290.00976562 925.59396729 -290.00976562 924.93396729 -290.00976562 924.25396729 C-290.89051758 923.85649292 -290.89051758 923.85649292 -291.7890625 923.45098877 C-294.08009464 922.21605797 -295.66532031 920.8965684 -297.54101562 919.10162354 C-298.18683594 918.48996338 -298.83265625 917.87830322 -299.49804688 917.24810791 C-300.16191406 916.6106665 -300.82578125 915.9732251 -301.50976562 915.31646729 C-302.8309674 914.05555336 -304.15383406 912.79638119 -305.47851562 911.53912354 C-306.06052734 910.98104004 -306.64253906 910.42295654 -307.2421875 909.84796143 C-309.02391149 908.17974813 -309.02391149 908.17974813 -311.23046875 906.67364502 C-311.81763672 906.20515137 -312.40480469 905.73665771 -313.00976562 905.25396729 C-313.00976562 904.59396729 -313.00976562 903.93396729 -313.00976562 903.25396729 C-313.66976562 903.25396729 -314.32976562 903.25396729 -315.00976562 903.25396729 C-315.00976562 902.59396729 -315.00976562 901.93396729 -315.00976562 901.25396729 C-315.66976562 901.25396729 -316.32976562 901.25396729 -317.00976562 901.25396729 C-317.00976562 900.59396729 -317.00976562 899.93396729 -317.00976562 899.25396729 C-318.32976562 898.59396729 -319.64976562 897.93396729 -321.00976562 897.25396729 C-321.00976562 896.59396729 -321.00976562 895.93396729 -321.00976562 895.25396729 C-321.66976562 895.25396729 -322.32976562 895.25396729 -323.00976562 895.25396729 C-324.31445312 893.96099854 -324.31445312 893.96099854 -325.88476562 892.06646729 C-328.24098142 889.2800295 -330.6402269 886.55726352 -333.13867188 883.89849854 C-333.95585693 883.0277771 -333.95585693 883.0277771 -334.78955078 882.13946533 C-335.88860109 880.97227066 -336.99111134 879.80832361 -338.09716797 878.64776611 C-342.00976562 874.47420405 -342.00976562 874.47420405 -342.00976562 872.25396729 C-342.66976562 872.25396729 -343.32976562 872.25396729 -344.00976562 872.25396729 C-345.52961445 870.57861269 -346.97683015 868.83691106 -348.38476562 867.06646729 C-349.155625 866.1035376 -349.92648437 865.14060791 -350.72070312 864.14849854 C-351.47609375 863.19330322 -352.23148437 862.23810791 -353.00976562 861.25396729 C-354.9546224 858.81735015 -356.90350053 856.38478944 -358.86914062 853.96490479 C-373.00976562 836.49363671 -373.00976562 836.49363671 -373.00976562 833.25396729 C-373.66976562 833.25396729 -374.32976562 833.25396729 -375.00976562 833.25396729 C-376.38476562 831.37506104 -376.38476562 831.37506104 -378.00976562 828.69146729 C-381.40535677 823.17988671 -384.96818394 817.80703296 -388.6328125 812.47052002 C-390.87136937 809.16071674 -392.69863384 806.06421765 -394.00976562 802.25396729 C-394.66976562 802.25396729 -395.32976562 802.25396729 -396.00976562 802.25396729 C-397.01746083 800.48750158 -398.01568277 798.71562905 -399.00976562 796.94146729 C-399.56664062 795.95533447 -400.12351562 794.96920166 -400.69726562 793.95318604 C-402.00976562 791.25396729 -402.00976562 791.25396729 -402.00976562 788.25396729 C-402.66976562 788.25396729 -403.32976562 788.25396729 -404.00976562 788.25396729 C-404.43386719 787.3941626 -404.85796875 786.53435791 -405.29492188 785.64849854 C-408.25924098 779.67425541 -411.25728613 773.73706328 -414.44726562 767.87896729 C-419.58981792 758.4028035 -424.4077839 748.75392857 -429.00976562 739.00396729 C-429.40164063 738.17381104 -429.79351562 737.34365479 -430.19726562 736.48834229 C-431.00976562 734.25396729 -431.00976562 734.25396729 -431.00976562 730.25396729 C-431.66976562 730.25396729 -432.32976562 730.25396729 -433.00976562 730.25396729 C-434.32603254 726.63423326 -435.00976562 724.15829598 -435.00976562 720.25396729 C-435.66976562 720.25396729 -436.32976562 720.25396729 -437.00976562 720.25396729 C-437.19152344 719.61330322 -437.37328125 718.97263916 -437.56054688 718.31256104 C-438.74271493 714.24469043 -439.90986795 710.288628 -441.69726562 706.44146729 C-442.95646269 703.38341727 -443.3055221 701.50728851 -443.00976562 698.25396729 C-443.66976562 698.25396729 -444.32976562 698.25396729 -445.00976562 698.25396729 C-445.21472656 697.39931885 -445.4196875 696.54467041 -445.63085938 695.66412354 C-445.90027344 694.55939697 -446.1696875 693.45467041 -446.44726562 692.31646729 C-446.71410156 691.21431885 -446.9809375 690.11217041 -447.25585938 688.97662354 C-447.73972287 686.35975475 -447.73972287 686.35975475 -449.00976562 685.25396729 C-449.05057345 683.25438365 -449.05230919 681.25351475 -449.00976562 679.25396729 C-449.66976562 679.25396729 -450.32976562 679.25396729 -451.00976562 679.25396729 C-451.265 678.05513916 -451.265 678.05513916 -451.52539062 676.83209229 C-452.76104169 671.23222683 -454.09388687 665.78764039 -456.00976562 660.37896729 C-457.99885618 654.64615115 -459.1723382 648.89128433 -460.28710938 642.93365479 C-460.95374422 639.53922224 -461.75404582 636.22314974 -462.63476562 632.87896729 C-463.90263812 627.99237538 -464.52404009 623.27313114 -465.00976562 618.25396729 C-465.33976562 617.59396729 -465.66976563 616.93396729 -466.00976562 616.25396729 C-466.32096847 613.69518835 -466.51941229 611.13545117 -466.72851562 608.56646729 C-466.8811261 606.23128273 -466.8811261 606.23128273 -468.00976562 604.25396729 C-468.28855743 601.01024679 -468.45663781 597.7665863 -468.63085938 594.51568604 C-468.84641473 591.32959675 -468.84641473 591.32959675 -470.01757431 588.87031555 C-471.07335445 586.08628742 -471.26117547 584.09431582 -471.26373291 581.13067627 C-471.26937256 580.12133026 -471.27501221 579.11198425 -471.28082275 578.072052 C-471.27475006 576.42766647 -471.27475006 576.42766647 -471.26855469 574.75006104 C-471.27205933 573.5869339 -471.27556396 572.42380676 -471.2791748 571.22543335 C-471.2879772 567.38071728 -471.28214808 563.53618523 -471.27539062 559.69146729 C-471.2767377 557.02015962 -471.27867552 554.34885754 -471.28118896 551.67755127 C-471.28482472 546.07897956 -471.28003977 540.48046066 -471.27050781 534.88189697 C-471.25962398 528.41474519 -471.26314984 521.94771952 -471.27416062 515.48057079 C-471.28324463 509.92204047 -471.28451333 504.36354805 -471.27928329 498.8050127 C-471.2761697 495.48775123 -471.27652586 492.17056184 -471.28235626 488.853302 C-471.28743009 485.15473887 -471.27969884 481.45641857 -471.26855469 477.75787354 C-471.27260315 476.66161652 -471.27665161 475.5653595 -471.28082275 474.43588257 C-471.27518311 473.42653656 -471.26954346 472.41719055 -471.26373291 471.3772583 C-471.26297886 470.50344009 -471.26222481 469.62962189 -471.26144791 468.72932434 C-470.97797478 465.94129648 -470.09662604 463.82459081 -469.00976562 461.25396729 C-468.75163004 459.03187226 -468.56698072 456.80029999 -468.44726562 454.56646729 C-468.1078548 448.45014563 -468.1078548 448.45014563 -467.00976562 446.25396729 C-466.80754207 444.59124025 -466.64565175 442.92342544 -466.50976562 441.25396729 C-466.12087674 436.47618951 -466.12087674 436.47618951 -465.00976562 434.25396729 C-464.82414062 432.33584229 -464.82414062 432.33584229 -464.63476562 430.37896729 C-464.14942953 425.61660686 -463.03653479 421.1533833 -461.81835938 416.53131104 C-460.97195938 413.10073328 -460.32961533 409.66751978 -459.69726562 406.19146729 C-458.34612963 399.19735153 -456.33153455 392.52914438 -454.07885742 385.77520752 C-452.69756779 381.60751569 -451.58370799 377.62852801 -451.00976562 373.25396729 C-450.34976563 373.25396729 -449.68976563 373.25396729 -449.00976562 373.25396729 C-449.07164062 372.40834229 -449.13351562 371.56271729 -449.19726562 370.69146729 C-449.01647438 367.3769611 -448.27961148 365.35743973 -446.87695312 362.39849854 C-445.04338244 357.86412779 -444.11076516 353.00934827 -443.00976562 348.25396729 C-442.34976563 348.25396729 -441.68976563 348.25396729 -441.00976562 348.25396729 C-441.07164062 347.55271729 -441.13351562 346.85146729 -441.19726562 346.12896729 C-440.96607821 342.58409365 -439.64091439 340.38577292 -438.00976562 337.25396729 C-437.31069149 334.51824144 -437.31069149 334.51824144 -437.00976562 332.25396729 C-436.34976563 332.25396729 -435.68976563 332.25396729 -435.00976562 332.25396729 C-434.86539063 331.53209229 -434.72101563 330.81021729 -434.57226562 330.06646729 C-434.05143229 327.46230062 -433.53059896 324.85813395 -433.00976562 322.25396729 C-432.34976563 322.25396729 -431.68976563 322.25396729 -431.00976562 322.25396729 C-430.82414062 321.19435791 -430.82414062 321.19435791 -430.63476562 320.11334229 C-428.24076516 309.16079015 -422.58077502 299.32670837 -417.26855469 289.57769775 C-415.04224858 285.46792632 -412.87209789 281.32863655 -410.69726562 277.19146729 C-410.28903564 276.41851318 -409.88080566 275.64555908 -409.46020508 274.84918213 C-406.91219939 270.01482672 -404.43811247 265.14955897 -402.00976562 260.25396729 C-401.34976563 260.25396729 -400.68976563 260.25396729 -400.00976562 260.25396729 C-399.90664063 259.71771729 -399.80351562 259.18146729 -399.69726562 258.62896729 C-398.82883866 255.62894685 -397.45356266 253.01601379 -396.00976562 250.25396729 C-395.34976563 250.25396729 -394.68976563 250.25396729 -394.00976562 250.25396729 C-393.74292969 249.53209229 -393.47609375 248.81021729 -393.20117188 248.06646729 C-389.75913745 239.94100897 -384.0014728 232.69881173 -378.94311523 225.49420166 C-376.81939983 222.47007141 -376.81939983 222.47007141 -375.00976562 219.25396729 C-374.34976563 219.25396729 -373.68976563 219.25396729 -373.00976562 219.25396729 C-372.77515625 218.55658447 -372.54054688 217.85920166 -372.29882812 217.14068604 C-370.77206446 213.72166075 -368.69875691 210.97449164 -366.38476562 208.06646729 C-365.93963623 207.49766846 -365.49450684 206.92886963 -365.03588867 206.34283447 C-363.70076345 204.64093758 -362.35714237 202.94617511 -361.00976562 201.25396729 C-359.92501953 199.89078369 -359.92501953 199.89078369 -358.81835938 198.50006104 C-357.51518615 196.87045694 -356.20806347 195.24400113 -354.89648438 193.62115479 C-352.34738572 190.42290678 -349.89615137 187.15241138 -347.45507812 183.87115479 C-346.978125 183.33748291 -346.50117188 182.80381104 -346.00976562 182.25396729 C-345.34976563 182.25396729 -344.68976563 182.25396729 -344.00976562 182.25396729 C-344.00976562 181.59396729 -344.00976562 180.93396729 -344.00976562 180.25396729 C-343.34976563 180.25396729 -342.68976563 180.25396729 -342.00976562 180.25396729 C-341.79320312 179.71900635 -341.57664062 179.18404541 -341.35351562 178.63287354 C-339.52659341 175.39858391 -337.05092749 172.8672385 -334.50976562 170.19146729 C-331.79846044 167.31552212 -329.2113008 164.55627004 -327.00976562 161.25396729 C-326.34976563 161.25396729 -325.68976563 161.25396729 -325.00976562 161.25396729 C-324.34976563 159.93396729 -323.68976563 158.61396729 -323.00976562 157.25396729 C-322.34976563 157.25396729 -321.68976563 157.25396729 -321.00976562 157.25396729 C-320.34976563 155.93396729 -319.68976563 154.61396729 -319.00976562 153.25396729 C-318.34976563 153.25396729 -317.68976563 153.25396729 -317.00976562 153.25396729 C-317.00976562 152.59396729 -317.00976562 151.93396729 -317.00976562 151.25396729 C-316.34976563 151.25396729 -315.68976563 151.25396729 -315.00976562 151.25396729 C-315.00976562 150.59396729 -315.00976562 149.93396729 -315.00976562 149.25396729 C-314.34976563 149.25396729 -313.68976563 149.25396729 -313.00976562 149.25396729 C-313.00976562 148.59396729 -313.00976562 147.93396729 -313.00976562 147.25396729 C-312.34976563 147.25396729 -311.68976563 147.25396729 -311.00976562 147.25396729 C-311.00976562 146.59396729 -311.00976562 145.93396729 -311.00976562 145.25396729 C-310.34976563 145.25396729 -309.68976563 145.25396729 -309.00976562 145.25396729 C-309.00976562 144.59396729 -309.00976562 143.93396729 -309.00976562 143.25396729 C-307.57617187 141.80865479 -307.57617187 141.80865479 -305.57226562 140.12896729 C-301.59355239 136.76018157 -297.73270953 133.28356909 -293.89257812 129.75787354 C-292.00976562 128.25396729 -292.00976562 128.25396729 -290.00976562 128.25396729 C-290.00976562 127.59396729 -290.00976562 126.93396729 -290.00976562 126.25396729 C-285.53917739 122.25396729 -285.53917739 122.25396729 -283.00976562 122.25396729 C-283.00976562 121.59396729 -283.00976562 120.93396729 -283.00976562 120.25396729 C-280.53476562 119.26396729 -280.53476562 119.26396729 -278.00976562 118.25396729 C-278.00976562 117.59396729 -278.00976562 116.93396729 -278.00976562 116.25396729 C-275.53476562 115.26396729 -275.53476562 115.26396729 -273.00976562 114.25396729 C-273.00976562 113.59396729 -273.00976562 112.93396729 -273.00976562 112.25396729 C-270.53476562 111.26396729 -270.53476562 111.26396729 -268.00976562 110.25396729 C-268.00976562 109.59396729 -268.00976562 108.93396729 -268.00976562 108.25396729 C-266.63964844 107.06817627 -266.63964844 107.06817627 -264.71289062 105.75006104 C-263.65352295 105.01577881 -263.65352295 105.01577881 -262.57275391 104.2666626 C-261.80946777 103.74684814 -261.04618164 103.22703369 -260.25976562 102.69146729 C-258.69870549 101.6137247 -257.13881684 100.53428337 -255.58007812 99.45318604 C-254.80567383 98.91613037 -254.03126953 98.37907471 -253.23339844 97.82574463 C-249.16438224 94.94955597 -245.2478594 91.8783195 -241.33007812 88.80084229 C-239.00976562 87.25396729 -239.00976562 87.25396729 -236.00976562 87.25396729 C-236.00976562 86.59396729 -236.00976562 85.93396729 -236.00976562 85.25396729 C-235.01976562 85.25396729 -234.02976563 85.25396729 -233.00976562 85.25396729 C-233.00976562 84.59396729 -233.00976562 83.93396729 -233.00976562 83.25396729 C-232.15705078 82.79957275 -232.15705078 82.79957275 -231.28710938 82.33599854 C-227.59235265 80.33133086 -224.00237477 78.34012572 -220.63476562 75.81646729 C-217.06095663 73.1908117 -213.27069278 71.13866606 -209.36132812 69.05474854 C-206.02664041 67.26303404 -202.72374883 65.42195131 -199.42211914 63.57037354 C-191.71328128 59.2518225 -183.94978913 55.13458805 -176.00976562 51.25396729 C-174.786288 50.63971517 -173.56367544 50.02373789 -172.34179688 49.40631104 C-171.71499023 49.09008789 -171.08818359 48.77386475 -170.44238281 48.44805908 C-168.674346 47.55550055 -166.90650298 46.66255817 -165.13867188 45.76959229 C-157.88089965 42.25396729 -157.88089965 42.25396729 -153.00976562 42.25396729 C-153.00976562 41.59396729 -153.00976562 40.93396729 -153.00976562 40.25396729 C-152.08035156 39.92783447 -151.1509375 39.60170166 -150.19335938 39.26568604 C-142.64380911 36.6589301 -142.64380911 36.6589301 -135.25976562 33.62896729 C-131.74093828 32.14023264 -128.21922138 31.10030208 -124.53710938 30.09771729 C-121.90259681 29.28876679 -121.90259681 29.28876679 -119.18164062 27.80474854 C-115.65188641 26.07899432 -112.09225675 24.9842402 -108.32226562 23.94146729 C-102.75963212 22.36193141 -97.23797628 20.70173545 -91.73852539 18.91412354 C-84.03845565 16.41200933 -76.46470881 14.31408925 -68.50195312 12.79693604 C-66.08006272 12.50438918 -66.08006272 12.50438918 -65.00976562 11.25396729 C-62.95247393 10.93473237 -60.89363042 10.74235376 -58.82226562 10.53521729 C-56.99301232 10.43398685 -56.99301232 10.43398685 -56.00976562 9.25396729 C-54.53579823 9.04628499 -53.05485302 8.88680712 -51.57226562 8.75396729 C-48.16479058 8.46249784 -48.16479058 8.46249784 -45.00976562 7.25396729 C-42.71167027 6.94526791 -40.41256433 6.7451308 -38.10351562 6.53521729 C-35.9553263 6.36181228 -35.9553263 6.36181228 -34.00976562 5.25396729 C-31.45098669 4.94276444 -28.89124951 4.74432062 -26.32226562 4.53521729 C-23.98708107 4.38260681 -23.98708107 4.38260681 -22.00976562 3.25396729 C-18.73343197 2.97578801 -15.45722416 2.80704917 -12.17382812 2.63287354 C-9.12444758 2.46206455 -9.12444758 2.46206455 -7.12512207 1.2461586 C-4.5871371 0.0557367 -2.79710714 0.00240761 0 0 Z " fill="#439CD6" transform="translate(485.009765625,13.74603271484375)"/>
<path d="M0 0 C203.28 0 406.56 0 616 0 C614.88888929 4.44444283 613.77882498 5.63410226 610.65492725 8.86505508 C610.19720699 9.34241509 609.73948672 9.8197751 609.26789615 10.31160057 C607.72345755 11.9183958 606.1684792 13.51456668 604.61323547 15.11090088 C603.49534635 16.26874967 602.3780405 17.42716186 601.26127023 18.58608985 C598.18260233 21.77657774 595.0940771 24.95736566 592.0034858 28.13629961 C589.35471878 30.86294874 586.71138809 33.5948406 584.06775282 36.32646397 C558.91873923 62.30688981 533.57781712 88.10078087 508.193326 113.85092545 C504.88241707 117.2103907 501.57198236 120.57032245 498.26196289 123.93066406 C497.43932102 124.76577419 496.61667915 125.60088432 495.76910874 126.46130082 C482.50027436 139.93705513 469.33465822 153.50927609 456.20660124 167.12205628 C442.69591539 181.12731589 429.08228063 195.02614231 415.36933583 208.83345389 C407.68410882 216.57725407 400.0514389 224.36059172 392.5337162 232.26740265 C340.01760631 287.41801664 340.01760631 287.41801664 311.52167797 288.51458359 C285.84146533 288.25813146 285.84146533 288.25813146 279.20708162 282.42310506 C278.06225619 281.10051317 276.95515469 279.74468753 275.87979716 278.36502063 C273.72530653 275.65440116 271.38018181 273.25708076 268.93314838 270.80730724 C268.46597028 270.33862381 267.99879217 269.86994038 267.51745716 269.38705442 C265.99223079 267.8583598 264.46357563 266.33314263 262.93489075 264.8079071 C261.81779294 263.68965547 260.70091296 262.57118621 259.5842306 261.45251971 C256.53158393 258.39571591 253.47584751 255.34201757 250.41956961 252.28884494 C247.11785534 248.98939922 243.81902728 245.68706993 240.51982117 242.38511658 C234.06386081 235.9247157 227.60520736 229.46701374 221.1455758 223.01028385 C215.89699017 217.76395822 210.64938337 212.51665539 205.40247154 207.26865578 C204.28160522 206.14755961 204.28160522 206.14755961 203.13809514 205.00381503 C201.62005656 203.48545673 200.10202024 201.96709619 198.58398613 200.44873343 C184.35955278 186.22145053 170.13205928 171.99723101 155.90351345 157.77406112 C143.69117997 145.56619887 131.48147586 133.35571199 119.27368164 121.14331055 C105.09458359 106.95886381 90.91386846 92.77603698 76.73055953 78.5958007 C75.21906464 77.08462436 73.70757184 75.57344594 72.19608116 74.0622654 C71.45239915 73.31873766 70.70871714 72.57520993 69.94249931 71.80915105 C64.69803021 66.56554594 59.45472356 61.32078018 54.21186256 56.07556725 C47.8270445 49.68794789 41.44045452 43.30210661 35.0515695 36.91855492 C31.79111222 33.66072962 28.5314668 30.40210273 25.27397537 27.14131165 C22.2939263 24.15828954 19.31159072 21.17757375 16.32739063 18.19870446 C15.24658265 17.11901629 14.16662235 16.03847878 13.087584 14.95702203 C11.62378836 13.49019678 10.15696365 12.0264689 8.68932819 10.56348705 C7.87444567 9.74876688 7.05956315 8.93404671 6.21998721 8.09463805 C4.07858001 5.97114252 4.07858001 5.97114252 1.70691699 4.40228206 C1.14363438 3.93952898 0.58035178 3.4767759 0 3 C0 2.01 0 1.02 0 0 Z " fill="#FDFEFE" transform="translate(232,328)"/>
<path d="M0 0 C3 0 3 0 4.3671875 1.29296875 C4.86476563 1.91816406 5.36234375 2.54335938 5.875 3.1875 C9.6970753 7.76585829 13.85442293 11.91634749 18.11669922 16.07885742 C20.91365696 18.83276538 23.57961219 21.63609385 26.12866211 24.62207031 C30.2984185 29.40910926 34.73808121 33.89996393 39.22265625 38.390625 C40.08636337 39.25766052 40.9500705 40.12469604 41.83995056 41.01800537 C43.65476679 42.83785544 45.47091443 44.65637867 47.28833008 46.47363281 C50.06294509 49.25044544 52.82944908 52.03517367 55.59570312 54.8203125 C57.3666975 56.59423933 59.13816567 58.36769329 60.91015625 60.140625 C62.14319237 61.38443939 62.14319237 61.38443939 63.40113831 62.65338135 C64.17892136 63.42808777 64.95670441 64.20279419 65.75805664 65.00097656 C66.43421524 65.67856018 67.11037384 66.3561438 67.80702209 67.05426025 C73.04089695 71.69806369 76.48395383 73.50081703 83.5625 73.50170898 C84.29500977 73.50711197 85.02751953 73.51251495 85.78222656 73.51808167 C88.18857 73.53052544 90.59370667 73.51410823 93 73.49609375 C94.68099022 73.49624884 96.3619808 73.49773949 98.04296875 73.50050354 C101.56005733 73.50188558 105.07673714 73.48936249 108.59375 73.46655273 C113.09290158 73.43816852 117.59137436 73.44090796 122.09057617 73.45364285 C125.55995439 73.46061119 129.02917683 73.45279759 132.49853516 73.44038582 C134.15705772 73.43588254 135.81559707 73.43552467 137.47412109 73.43945122 C139.79559374 73.44237486 142.11614417 73.42580268 144.4375 73.40405273 C145.75621094 73.39864975 147.07492187 73.39324677 148.43359375 73.38768005 C155.02554203 72.67111366 158.58771151 69.73959974 163 65 C163.97635745 64.01755926 164.95713066 63.03949317 165.9415741 62.06515503 C166.46723465 61.54093964 166.9928952 61.01672424 167.53448486 60.47662354 C168.09311218 59.91956726 168.6517395 59.36251099 169.22729492 58.78857422 C175.33983031 52.69234219 181.44984798 46.59359324 187.55842113 40.49339104 C191.24913848 36.80791126 194.94079319 33.12338025 198.63452148 29.44091797 C202.21508357 25.87120337 205.79321283 22.29906695 209.3696537 18.72522354 C210.73195835 17.36476717 212.09514315 16.00519155 213.45921898 14.64651108 C215.36210146 12.75086542 217.26185398 10.85213593 219.16088867 8.95263672 C219.72558868 8.39153198 220.2902887 7.83042725 220.87210083 7.25231934 C223.19302767 4.92522372 225.16998328 2.74502509 227 0 C228.65 0.33 230.3 0.66 232 1 C232 1.66 232 2.32 232 3 C232.66 3 233.32 3 234 3 C234 3.66 234 4.32 234 5 C234.66 5 235.32 5 236 5 C236 5.66 236 6.32 236 7 C236.66 7 237.32 7 238 7 C238 7.66 238 8.32 238 9 C238.66 9 239.32 9 240 9 C240 9.66 240 10.32 240 11 C240.66 11 241.32 11 242 11 C242.40274549 11.68681256 242.80549097 12.37362513 243.22044086 13.08125019 C245.50808974 16.83334507 248.3597447 19.62303237 251.47294617 22.69999695 C252.13296137 23.36030987 252.79297658 24.02062279 253.47299224 24.7009452 C255.68390571 26.91047062 257.90188188 29.11276674 260.11987305 31.31518555 C261.70694603 32.89842004 263.29356415 34.48211062 264.87976074 36.06622314 C268.29490166 39.47504281 271.71312506 42.88073048 275.13373375 46.28406334 C280.53722761 51.66054036 285.93310963 57.04461269 291.32783508 62.42988586 C298.88670167 69.97408961 306.44834005 77.51550056 314.01293945 85.05395508 C314.49273193 85.53209193 314.9725244 86.01022878 315.46685604 86.50285462 C318.87363988 89.89783424 322.28055641 93.29268069 325.6875 96.6875 C329.58448645 100.5706239 333.48140769 104.45381322 337.37817383 108.3371582 C337.85829195 108.81562007 338.33841006 109.29408193 338.83307721 109.78704264 C346.82815204 117.75477972 354.81928459 125.72645971 362.80770522 133.7008689 C368.17640165 139.05957044 373.54994468 144.41335063 378.92717969 149.76348341 C382.26264361 153.08408613 385.59401044 156.40877545 388.92424774 159.73461914 C390.47538241 161.28199261 392.02825323 162.82762783 393.58293343 164.37143898 C395.69587983 166.47007047 397.80268405 168.57467682 399.90800476 170.68095398 C400.53240108 171.29816037 401.15679739 171.91536677 401.80011481 172.55127639 C406 176.771814 406 176.771814 406 179 C213.94 179 21.88 179 -176 179 C-174.91350228 174.6540091 -174.31224172 174.06028168 -171 171.375 C-168.04427685 169.05444701 -168.04427685 169.05444701 -166 166 C-165.34 166 -164.68 166 -164 166 C-164 165.34 -164 164.68 -164 164 C-163.34 164 -162.68 164 -162 164 C-161.01 162.02 -161.01 162.02 -160 160 C-159.34 160 -158.68 160 -158 160 C-158 159.34 -158 158.68 -158 158 C-157.34 158 -156.68 158 -156 158 C-155.01 156.02 -155.01 156.02 -154 154 C-153.34 154 -152.68 154 -152 154 C-152 153.34 -152 152.68 -152 152 C-151.34 152 -150.68 152 -150 152 C-150 151.34 -150 150.68 -150 150 C-149.34 150 -148.68 150 -148 150 C-148 149.34 -148 148.68 -148 148 C-147.34 148 -146.68 148 -146 148 C-146 147.34 -146 146.68 -146 146 C-145.34 146 -144.68 146 -144 146 C-144 145.34 -144 144.68 -144 144 C-143.34 144 -142.68 144 -142 144 C-142 143.34 -142 142.68 -142 142 C-141.34 142 -140.68 142 -140 142 C-139.62294922 141.11441406 -139.62294922 141.11441406 -139.23828125 140.2109375 C-137.84513594 137.72349193 -136.39035239 136.41929277 -134.1875 134.625 C-131.55896606 132.41626821 -129.25696522 130.25450385 -127.125 127.5625 C-126.073125 126.2940625 -126.073125 126.2940625 -125 125 C-124.34 125 -123.68 125 -123 125 C-123 124.34 -123 123.68 -123 123 C-122.34 123 -121.68 123 -121 123 C-121 122.34 -121 121.68 -121 121 C-120.34 121 -119.68 121 -119 121 C-119 120.34 -119 119.68 -119 119 C-118.34 119 -117.68 119 -117 119 C-117 118.34 -117 117.68 -117 117 C-116.34 117 -115.68 117 -115 117 C-115 116.34 -115 115.68 -115 115 C-114.34 115 -113.68 115 -113 115 C-112.01 113.02 -112.01 113.02 -111 111 C-110.34 111 -109.68 111 -109 111 C-109 110.34 -109 109.68 -109 109 C-108.34 109 -107.68 109 -107 109 C-107 108.34 -107 107.68 -107 107 C-106.34 107 -105.68 107 -105 107 C-104.01 105.02 -104.01 105.02 -103 103 C-102.34 103 -101.68 103 -101 103 C-101 102.34 -101 101.68 -101 101 C-99.42578125 99.484375 -99.42578125 99.484375 -97.3125 97.75 C-94.64650867 95.49924272 -92.28989909 93.29950455 -90.125 90.5625 C-89.073125 89.2940625 -89.073125 89.2940625 -88 88 C-87.34 88 -86.68 88 -86 88 C-85.773125 87.401875 -85.54625 86.80375 -85.3125 86.1875 C-83.66348536 83.43914226 -81.72640732 82.60788124 -79 81 C-78.505 79.515 -78.505 79.515 -78 78 C-77.34 78 -76.68 78 -76 78 C-76 77.34 -76 76.68 -76 76 C-75.34 76 -74.68 76 -74 76 C-74 75.34 -74 74.68 -74 74 C-73.34 74 -72.68 74 -72 74 C-72 73.34 -72 72.68 -72 72 C-71.34 72 -70.68 72 -70 72 C-69.7525 71.38125 -69.505 70.7625 -69.25 70.125 C-67.76259631 67.59641373 -66.56321991 67.28160996 -64 66 C-63.73316406 65.41476562 -63.46632813 64.82953125 -63.19140625 64.2265625 C-61.60569648 61.26310489 -59.47785452 59.56080145 -56.9375 57.375 C-53.48348875 54.56907909 -53.48348875 54.56907909 -51 51 C-50.34 51 -49.68 51 -49 51 C-49 50.34 -49 49.68 -49 49 C-47.125 46.875 -47.125 46.875 -45 45 C-44.34 45 -43.68 45 -43 45 C-43 44.34 -43 43.68 -43 43 C-42.34 43 -41.68 43 -41 43 C-41 42.34 -41 41.68 -41 41 C-40.34 41 -39.68 41 -39 41 C-39 40.34 -39 39.68 -39 39 C-38.34 39 -37.68 39 -37 39 C-37 38.34 -37 37.68 -37 37 C-36.34 37 -35.68 37 -35 37 C-34.34 35.68 -33.68 34.36 -33 33 C-32.34 33 -31.68 33 -31 33 C-31 32.34 -31 31.68 -31 31 C-30.34 31 -29.68 31 -29 31 C-28.6596875 30.1646875 -28.6596875 30.1646875 -28.3125 29.3125 C-25.50208484 24.36081615 -20.79535717 20.90965297 -16.453125 17.33203125 C-14.87220817 16.0420309 -14.87220817 16.0420309 -14 14 C-13.34 14 -12.68 14 -12 14 C-12 13.34 -12 12.68 -12 12 C-10.125 9.875 -10.125 9.875 -8 8 C-7.34 8 -6.68 8 -6 8 C-6 7.34 -6 6.68 -6 6 C-5.34 6 -4.68 6 -4 6 C-3.71125 5.38125 -3.4225 4.7625 -3.125 4.125 C-2 2 -2 2 0 0 Z " fill="#FDFEFE" transform="translate(425,573)"/>
<path d="M0 0 C4.46598608 1.11649652 5.57221796 2.20168506 8.75268555 5.39624023 C9.21008118 5.85159149 9.66747681 6.30694275 10.13873291 6.77609253 C11.6454181 8.27977494 13.14109899 9.7939112 14.63671875 11.30859375 C15.68177399 12.3567073 16.72742161 13.4042305 17.77363586 14.45118713 C19.96282774 16.64497875 22.14701999 18.84358592 24.32739258 21.04614258 C27.1250637 23.87213062 29.93137165 26.68933711 32.74100018 29.50343227 C34.89901803 31.66560246 37.05418968 33.83058949 39.20832253 35.99662971 C40.2425138 37.0365251 41.27717942 38.07594896 42.31232262 39.11489677 C43.75600899 40.56544218 45.19584968 42.01981207 46.63549805 43.47436523 C47.45616257 44.30185776 48.27682709 45.12935028 49.12236023 45.98191833 C51 48 51 48 52 50 C52.7251691 50.42144854 53.45033819 50.84289707 54.19748211 51.27711678 C57.515892 53.31715112 60.11085726 55.82408397 62.84028625 58.56613159 C63.4080886 59.12869726 63.97589095 59.69126293 64.56089944 60.27087605 C66.45723934 62.15224536 68.346393 64.04066511 70.2355957 65.92919922 C71.59553075 67.28151116 72.95586705 68.63341969 74.3165741 69.98495483 C78.00710628 73.65355825 81.69105944 77.32869915 85.37318444 81.00573874 C87.67294807 83.30185881 89.97400441 85.59667527 92.27550316 87.89105606 C100.30145029 95.89252049 108.32167114 103.89967886 116.3371582 111.91162109 C123.81499489 119.38581692 131.30587789 126.84676186 138.80277568 134.30183399 C145.23630253 140.7007193 151.66022519 147.10914076 158.07680386 153.52502072 C161.91057268 157.35799505 165.74824945 161.18685272 169.59578896 165.00600815 C173.21092275 168.59506472 176.81400934 172.19578509 180.4080677 175.80594254 C181.73082988 177.13052706 183.05789841 178.45082677 184.38948441 179.76654053 C186.20295436 181.55969991 188.0004312 183.36749169 189.79463196 185.17990112 C190.32817222 185.70024142 190.86171249 186.22058172 191.41142064 186.75668991 C193.54116088 188.93632052 194.91824136 190.37119407 195.31841028 193.44889438 C194.93525801 196.51871333 194.21146424 197.41393186 192.04666615 199.57974625 C191.38790448 200.25092995 190.72914281 200.92211365 190.05041867 201.61363626 C189.3145491 202.3376701 188.57867952 203.06170395 187.82051086 203.80767822 C187.04816374 204.58711973 186.27581663 205.36656124 185.48006505 206.16962218 C182.87782717 208.78952218 180.25801071 211.39110743 177.63793945 213.99316406 C175.77309812 215.86314104 173.9092587 217.73406973 172.04658508 219.60620117 C167.50341244 224.16777386 162.94687106 228.71576352 158.38553343 233.2591646 C154.67913757 236.95154633 150.97782429 240.64895238 147.28011131 244.35002899 C146.75423629 244.87638145 146.22836127 245.40273392 145.68655064 245.94503646 C144.61833482 247.01427859 143.55013353 248.08353524 142.48194661 249.15280625 C133.03116722 258.6121576 123.5678059 268.05882342 114.09790039 277.49902344 C104.90556388 286.66252547 95.72417472 295.8368256 86.55395508 305.02246094 C76.57268963 315.02048247 66.5851046 325.01211352 56.58670396 334.9930017 C55.52078695 336.05707429 54.45487478 337.12115173 53.38896751 338.18523407 C52.86449012 338.70879937 52.34001273 339.23236467 51.79964209 339.77179559 C48.10152435 343.46430392 44.40788609 347.16125717 40.71587563 350.85987091 C36.21686237 355.3666109 31.71069814 359.86605293 27.19524655 364.35632494 C24.89089371 366.64816691 22.59095004 368.94414168 20.29735565 371.24675751 C17.81215062 373.74061126 15.3150399 376.22188654 12.81440735 378.70025635 C12.08969138 379.43321308 11.36497541 380.16616982 10.61829835 380.92133737 C9.94649795 381.58209008 9.27469755 382.24284279 8.58253956 382.92361832 C8.00726326 383.49770314 7.43198696 384.07178795 6.83927804 384.66326928 C5 386 5 386 0 387 C0 259.29 0 131.58 0 0 Z " fill="#FEFEFE" transform="translate(206,355)"/>
<path d="M0 0 C0 127.05 0 254.1 0 385 C-3.24869453 383.37565273 -4.7516046 382.49775866 -7.17164993 380.07165241 C-7.77730797 379.46935977 -8.38296601 378.86706713 -9.00697732 378.2465232 C-9.66300305 377.58398967 -10.31902878 376.92145613 -10.99493408 376.23884583 C-11.69916181 375.53562138 -12.40338954 374.83239693 -13.12895751 374.10786265 C-15.49341923 371.74435541 -17.85065064 369.37376563 -20.20800781 367.00317383 C-21.89959266 365.30938824 -23.59162529 363.61604975 -25.28407288 361.92312622 C-29.40740353 357.79647567 -33.52615873 353.66529873 -37.64306197 349.53223679 C-42.44145894 344.71561317 -47.24594556 339.90508324 -52.05093548 335.09503802 C-60.62963071 326.50708465 -69.20421754 317.91504193 -77.77587891 309.32006836 C-78.28889477 308.80565918 -78.80191064 308.29125 -79.33047244 307.76125266 C-79.84410351 307.24622606 -80.35773458 306.73119946 -80.88693023 306.20056599 C-88.15780716 298.90994973 -95.42963316 291.62028191 -102.70263672 284.33178711 C-103.21381283 283.81952014 -103.72498895 283.30725318 -104.25165525 282.77946297 C-112.78847835 274.22458856 -121.32735219 265.67176295 -129.86727214 257.11998004 C-135.59801349 251.38099236 -141.32578166 245.63905699 -147.05136061 239.89491904 C-150.61965979 236.315952 -154.19000877 232.73903498 -157.76086235 229.16261673 C-159.41288781 227.50713008 -161.06404131 225.85077276 -162.71424294 224.19346809 C-164.9728758 221.92533066 -167.23462827 219.66034831 -169.49713135 217.39607239 C-170.46778561 216.4190025 -170.46778561 216.4190025 -171.45804906 215.42219383 C-175.80694646 211.07864458 -180.34211249 207.00841777 -185 203 C-186.51853826 201.64550137 -188.02356331 200.2752713 -189.5 198.875 C-190.1703125 198.25367188 -190.840625 197.63234375 -191.53125 196.9921875 C-193.4241865 194.42464065 -193.33330835 193.13856339 -193 190 C-191.7904278 188.16828465 -191.7904278 188.16828465 -190.05390358 186.43587112 C-189.39677521 185.76817082 -188.73964685 185.10047051 -188.0626055 184.41253686 C-186.96156802 183.33232251 -186.96156802 183.33232251 -185.83828735 182.23028564 C-185.06790709 181.45492769 -184.29752682 180.67956974 -183.5038017 179.88071609 C-180.90834192 177.27464328 -178.29534706 174.68688939 -175.68212891 172.09863281 C-173.82226156 170.23853888 -171.96348671 168.37735205 -170.10572815 166.51515198 C-165.57530711 161.97790684 -161.0317506 157.45403719 -156.48379184 152.93437895 C-151.19146105 147.67385722 -145.91283639 142.39967201 -140.6349179 137.12469694 C-131.22001765 127.7158642 -121.79363681 118.31861964 -112.36035156 108.92822266 C-103.19989604 99.80937916 -94.04611005 90.68391662 -84.90039062 81.55029297 C-84.33697927 80.98762983 -83.77356791 80.42496668 -83.19308348 79.84525314 C-80.92866096 77.58380473 -78.66425684 75.3223379 -76.3998839 73.06083985 C-66.64249319 63.31617564 -56.87959007 53.57703518 -47.11599439 43.8385886 C-45.53302574 42.25960343 -43.95018968 40.68048545 -42.36738634 39.10133457 C-36.36013472 33.10819456 -30.35017893 27.11779095 -24.33608818 21.1315136 C-22.51065691 19.31382448 -20.68606829 17.4952887 -18.86236382 15.67586708 C-16.38246335 13.20215334 -13.89951457 10.7315423 -11.41567993 8.26177979 C-10.68611639 7.532714 -9.95655284 6.80364821 -9.20488131 6.05248952 C-8.54253745 5.3952202 -7.88019359 4.73795088 -7.1977787 4.06076431 C-6.33771215 3.20419373 -6.33771215 3.20419373 -5.46027052 2.33031869 C-3.60367879 0.63894805 -2.53395804 0 0 0 Z " fill="#FEFEFE" transform="translate(873,356)"/>
<path d="M0 0 C4.12592993 1.03148248 4.97070497 1.62286102 7.75 4.5625 C8.36359375 5.20316406 8.9771875 5.84382813 9.609375 6.50390625 C10.06828125 6.99761719 10.5271875 7.49132812 11 8 C10.01 8 9.02 8 8 8 C6.35 6.35 4.7 4.7 3 3 C2.67 129.06 2.34 255.12 2 385 C8.05663744 379.75795111 8.05663744 379.75795111 13.84515476 374.29185963 C14.49916124 373.64292769 15.15316772 372.99399576 15.82699257 372.32539922 C16.5164155 371.63647405 17.20583842 370.94754888 17.91615295 370.23774719 C19.04839952 369.112074 19.04839952 369.112074 20.20351976 367.96365994 C22.7123345 365.46811669 25.21763901 362.96908076 27.72290039 360.4699707 C29.52846065 358.67231972 31.3342006 356.87484922 33.1401062 355.07754517 C38.53715691 349.70433824 43.92992162 344.32684624 49.32153121 338.94818023 C50.8446249 337.4288052 52.36784531 335.90955733 53.89111018 334.39035392 C63.35991358 324.9467617 72.82713274 315.50158441 82.28957462 306.05161762 C84.47452434 303.86959725 86.65949025 301.68759309 88.84448242 299.50561523 C89.38750322 298.96334048 89.93052402 298.42106573 90.49 297.86235841 C99.31198755 289.05305967 108.14422183 280.25410767 116.98062653 271.45927296 C126.05853449 262.42372212 135.12704928 253.37882954 144.18642038 244.32469243 C149.27113921 239.24339156 154.35997205 234.166362 159.45939827 229.09981728 C164.2469485 224.34308965 169.02174096 219.57392747 173.78799057 214.79584122 C175.54333595 213.04027378 177.30300483 211.28901765 179.0671711 209.54231453 C181.46532901 207.16661999 183.84776482 204.77622197 186.22669983 202.38130188 C186.93619925 201.68568455 187.64569867 200.99006721 188.37669808 200.27337056 C189.00723483 199.63226187 189.63777158 198.99115318 190.2874155 198.33061695 C190.83936921 197.78001978 191.39132291 197.2294226 191.96000248 196.66214067 C193.2110733 195.03573676 193.2110733 195.03573676 192.81290293 192.9582743 C191.49157986 189.7752214 189.020629 187.62058789 186.60276794 185.24200439 C185.75006564 184.38545718 185.75006564 184.38545718 184.88013703 183.51160598 C182.96939025 181.59590938 181.04810231 179.69114664 179.12670898 177.78613281 C177.75647656 176.4167464 176.38690398 175.04669945 175.01794434 173.67604065 C171.29547214 169.95270607 167.56380823 166.23870755 163.83046222 162.5262804 C159.9320076 158.64655189 156.0420205 154.75835272 152.15113831 150.87103271 C144.78001816 143.50924498 137.40128251 136.15513937 130.01980025 128.80374312 C121.61742155 120.43487116 113.22353769 112.05750122 104.83036697 103.67939615 C87.56303324 86.44343855 70.28502525 69.21821437 53 52 C56.66258203 52 57.50267354 53.13872909 60.02530688 55.61475247 C60.55741017 56.15218369 61.08951346 56.6896149 61.63774109 57.24333191 C62.20791814 57.80741786 62.77809519 58.37150381 63.36555034 58.95268327 C65.28438162 60.85479492 67.19224894 62.76754056 69.1003418 64.68041992 C70.46961681 66.0423598 71.839515 67.4036734 73.20999146 68.7644043 C76.93804958 72.47017874 80.65634033 76.18560995 84.37232566 79.90348601 C87.47131495 83.0025947 90.57462775 86.09735618 93.67784625 89.19222909 C100.99681686 96.49194075 108.3075544 103.79982835 115.61352539 111.11254883 C123.15916554 118.66483129 130.71943884 126.20223639 138.2869193 133.732629 C144.77573001 140.19078557 151.25487804 146.65852609 157.72643024 153.13397676 C161.59512693 157.00474545 165.46754135 160.87160646 169.34946251 164.72911644 C172.99915221 168.35661278 176.63667474 171.99587817 180.2650795 175.64466095 C181.60074319 176.98374784 182.94071073 178.3185573 184.28519249 179.64879036 C186.11629548 181.46181629 187.93140138 183.28947213 189.74320984 185.12174988 C190.28200529 185.64802748 190.82080075 186.17430509 191.37592334 186.7165305 C193.51492727 188.90788665 194.91607595 190.35682154 195.31973553 193.45039421 C194.9349866 196.51842388 194.21046882 197.41492775 192.04666615 199.57974625 C191.38790448 200.25092995 190.72914281 200.92211365 190.05041867 201.61363626 C189.3145491 202.3376701 188.57867952 203.06170395 187.82051086 203.80767822 C187.04816374 204.58711973 186.27581663 205.36656124 185.48006505 206.16962218 C182.87782717 208.78952218 180.25801071 211.39110743 177.63793945 213.99316406 C175.77309812 215.86314104 173.9092587 217.73406973 172.04658508 219.60620117 C167.50341244 224.16777386 162.94687106 228.71576352 158.38553343 233.2591646 C154.67913757 236.95154633 150.97782429 240.64895238 147.28011131 244.35002899 C146.75423629 244.87638145 146.22836127 245.40273392 145.68655064 245.94503646 C144.61833482 247.01427859 143.55013353 248.08353524 142.48194661 249.15280625 C133.03116722 258.6121576 123.5678059 268.05882342 114.09790039 277.49902344 C104.90556388 286.66252547 95.72417472 295.8368256 86.55395508 305.02246094 C76.57268963 315.02048247 66.5851046 325.01211352 56.58670396 334.9930017 C55.52078695 336.05707429 54.45487478 337.12115173 53.38896751 338.18523407 C52.86449012 338.70879937 52.34001273 339.23236467 51.79964209 339.77179559 C48.10152435 343.46430392 44.40788609 347.16125717 40.71587563 350.85987091 C36.21686237 355.3666109 31.71069814 359.86605293 27.19524655 364.35632494 C24.89089371 366.64816691 22.59095004 368.94414168 20.29735565 371.24675751 C17.81215062 373.74061126 15.3150399 376.22188654 12.81440735 378.70025635 C12.08969138 379.43321308 11.36497541 380.16616982 10.61829835 380.92133737 C9.94649795 381.58209008 9.27469755 382.24284279 8.58253956 382.92361832 C8.00726326 383.49770314 7.43198696 384.07178795 6.83927804 384.66326928 C5 386 5 386 0 387 C0 259.29 0 131.58 0 0 Z " fill="#ACD3EC" transform="translate(206,355)"/>
<path d="M0 0 C0.99 0 1.98 0 3 0 C3 129.03 3 258.06 3 391 C-0.88203937 390.02949016 -1.62270305 389.75203477 -4.24084854 387.12829494 C-4.86189036 386.51322627 -5.48293217 385.8981576 -6.12279344 385.26445049 C-6.79594897 384.58255643 -7.4691045 383.90066237 -8.16265869 383.19810486 C-9.24584306 382.1187654 -9.24584306 382.1187654 -10.35090995 381.0176211 C-12.77791728 378.59556998 -15.19402096 376.16292396 -17.61035156 373.73022461 C-19.34426544 371.99546486 -21.07883951 370.26136475 -22.81402588 368.52787781 C-26.55296605 364.78962162 -30.28725084 361.04680686 -34.01740265 357.29978752 C-39.41058883 351.88222957 -44.81203109 346.47296567 -50.21553013 341.06569607 C-58.98192192 332.29273694 -67.74159203 323.51309797 -76.49707031 314.72924805 C-85.00267112 306.196114 -93.51141427 297.66613367 -102.02441406 289.14038086 C-102.81140455 288.35220811 -102.81140455 288.35220811 -103.61429384 287.54811268 C-106.24635622 284.91213522 -108.87848061 282.2762197 -111.51063585 279.64033496 C-133.35004856 257.76981754 -155.17845444 235.88834528 -177 214 C-176.505 213.01 -176.505 213.01 -176 212 C-174.64991065 213.35147204 -174.64991065 213.35147204 -173.27254677 214.73024654 C-151.92455104 236.09988286 -130.57398473 257.46694713 -109.22023336 278.83083197 C-106.59406885 281.45824724 -103.96792613 284.08568427 -101.34179688 286.71313477 C-100.55754743 287.49777768 -100.55754743 287.49777768 -99.75745456 288.29827196 C-91.28302867 296.77705354 -82.81037012 305.25759908 -74.33835919 313.7387936 C-65.65040134 322.43609081 -56.96055673 331.13149948 -48.26894414 339.82514435 C-42.90238693 345.1930762 -37.53732089 350.56248967 -32.17413078 355.93378568 C-28.06699042 360.04681852 -23.95723094 364.1572273 -19.84646797 368.26663971 C-18.15646955 369.95691443 -16.46733516 371.64805353 -14.77910805 373.34009743 C-12.48308813 375.64105562 -10.18404689 377.93895085 -7.88418579 380.23606873 C-7.20909552 380.91407184 -6.53400525 381.59207495 -5.8384577 382.29062361 C-5.22488138 382.90220888 -4.61130506 383.51379415 -3.97913551 384.14391232 C-3.44828649 384.67514106 -2.91743747 385.2063698 -2.37050211 385.75369638 C-1.00042598 387.11266057 -1.00042598 387.11266057 1 388 C1 260.95 1 133.9 1 3 C0.01 3.33 -0.98 3.66 -2 4 C-1.34 2.68 -0.68 1.36 0 0 Z " fill="#8EC4E6" transform="translate(872,353)"/>
<path d="M0 0 C0 127.05 0 254.1 0 385 C-0.66 384.67 -1.32 384.34 -2 384 C-2 258.27 -2 132.54 -2 3 C-48.7465625 49.65375 -48.7465625 49.65375 -96.4375 97.25 C-106.2955249 107.08071289 -116.1535498 116.91142578 -126.31030273 127.04003906 C-135.11031978 135.83002519 -135.11031978 135.83002519 -143.90834045 144.62200928 C-147.838813 148.54967754 -151.77336793 152.47319986 -155.71070862 156.39398193 C-160.24816757 160.9123865 -164.78043699 165.43591937 -169.30628747 169.96595262 C-171.62316007 172.28463773 -173.94315274 174.6000375 -176.2681874 176.91054201 C-178.75393052 179.38146438 -181.23036001 181.86135291 -183.70457458 184.34381104 C-184.43684297 185.06734142 -185.16911135 185.79087181 -185.92356968 186.53632736 C-186.5841305 187.20286079 -187.24469131 187.86939423 -187.92526913 188.55612564 C-188.49902655 189.1287439 -189.07278396 189.70136216 -189.66392797 190.29133248 C-191.14625461 192.18704119 -191.59438892 193.64831511 -192 196 C-193 195 -193 195 -193.24663103 192.66025805 C-192.95148504 189.47669881 -192.28613556 188.66281897 -190.05390358 186.43587112 C-189.39677521 185.76817082 -188.73964685 185.10047051 -188.0626055 184.41253686 C-186.96156802 183.33232251 -186.96156802 183.33232251 -185.83828735 182.23028564 C-185.06790709 181.45492769 -184.29752682 180.67956974 -183.5038017 179.88071609 C-180.90834192 177.27464328 -178.29534706 174.68688939 -175.68212891 172.09863281 C-173.82226156 170.23853888 -171.96348671 168.37735205 -170.10572815 166.51515198 C-165.57530711 161.97790684 -161.0317506 157.45403719 -156.48379184 152.93437895 C-151.19146105 147.67385722 -145.91283639 142.39967201 -140.6349179 137.12469694 C-131.22001765 127.7158642 -121.79363681 118.31861964 -112.36035156 108.92822266 C-103.19989604 99.80937916 -94.04611005 90.68391662 -84.90039062 81.55029297 C-84.33697927 80.98762983 -83.77356791 80.42496668 -83.19308348 79.84525314 C-80.92866096 77.58380473 -78.66425684 75.3223379 -76.3998839 73.06083985 C-66.64249319 63.31617564 -56.87959007 53.57703518 -47.11599439 43.8385886 C-45.53302574 42.25960343 -43.95018968 40.68048545 -42.36738634 39.10133457 C-36.36013472 33.10819456 -30.35017893 27.11779095 -24.33608818 21.1315136 C-22.51065691 19.31382448 -20.68606829 17.4952887 -18.86236382 15.67586708 C-16.38246335 13.20215334 -13.89951457 10.7315423 -11.41567993 8.26177979 C-10.68611639 7.532714 -9.95655284 6.80364821 -9.20488131 6.05248952 C-8.54253745 5.3952202 -7.88019359 4.73795088 -7.1977787 4.06076431 C-6.33771215 3.20419373 -6.33771215 3.20419373 -5.46027052 2.33031869 C-3.60367879 0.63894805 -2.53395804 0 0 0 Z " fill="#DAEBF7" transform="translate(873,356)"/>
<path d="M0 0 C0.99 0.495 0.99 0.495 2 1 C-3.12759826 4.10354631 -6.17395048 5.15399144 -12.14013672 5.17700195 C-12.87527496 5.18357315 -13.61041321 5.19014435 -14.36782837 5.19691467 C-16.80511573 5.2166557 -19.2423415 5.2283112 -21.6796875 5.23828125 C-22.92715948 5.24439454 -22.92715948 5.24439454 -24.19983292 5.25063133 C-28.60050458 5.27149421 -33.00114503 5.2857957 -37.40185547 5.29516602 C-41.95065399 5.30623884 -46.49896445 5.34064781 -51.04759026 5.38033772 C-54.54258138 5.40646068 -58.03745538 5.41485392 -61.53253555 5.41844749 C-63.20949734 5.42332366 -64.88645354 5.43496691 -66.56332016 5.45348549 C-68.90963389 5.47778908 -71.25467362 5.47692881 -73.60107422 5.4699707 C-74.29420715 5.48278076 -74.98734009 5.49559082 -75.70147705 5.50878906 C-79.17437221 5.47123144 -80.74098524 5.21346272 -83.46243286 2.97062683 C-83.96983002 2.32031998 -84.47722717 1.67001312 -85 1 C-83.99796539 1.16200394 -82.99593079 1.32400787 -81.96353149 1.49092102 C-78.11892216 1.98472555 -74.4573094 2.13360196 -70.58349609 2.14526367 C-69.87849472 2.14862228 -69.17349335 2.1519809 -68.4471283 2.15544128 C-66.13921299 2.1648659 -63.83137079 2.16688959 -61.5234375 2.16796875 C-59.90874197 2.1711855 -58.29404673 2.17454988 -56.67935181 2.17805481 C-53.30543339 2.18402355 -49.93154051 2.18589686 -46.55761719 2.18530273 C-42.23901939 2.18520084 -37.92058499 2.19889121 -33.60202599 2.21607494 C-30.2717107 2.22719849 -26.94143502 2.22922189 -23.61110306 2.22869301 C-22.01872821 2.22987111 -20.42635228 2.23428338 -18.83399582 2.24202538 C-16.60845203 2.25183948 -14.38326455 2.24894256 -12.15771484 2.24291992 C-10.89309418 2.24434494 -9.62847351 2.24576996 -8.32553101 2.24723816 C-5.09726458 2.00723118 -2.9450523 1.24734564 0 0 Z " fill="#84BEE4" transform="translate(582,642)"/>
<path d="M0 0 C0 4.31618166 -2.13270348 5.92789659 -5 9 C-5.66 9 -6.32 9 -7 9 C-7.26876953 9.59329102 -7.53753906 10.18658203 -7.81445312 10.79785156 C-9.00290732 13.00540033 -10.20742389 14.46542882 -11.96875 16.234375 C-12.53980469 16.80800781 -13.11085938 17.38164063 -13.69921875 17.97265625 C-14.29347656 18.55917969 -14.88773437 19.14570312 -15.5 19.75 C-16.09425781 20.35199219 -16.68851562 20.95398438 -17.30078125 21.57421875 C-17.87183594 22.14269531 -18.44289063 22.71117187 -19.03125 23.296875 C-19.55267578 23.81604492 -20.07410156 24.33521484 -20.61132812 24.87011719 C-22 26 -22 26 -24 26 C-24.2475 26.61875 -24.495 27.2375 -24.75 27.875 C-26.20628639 30.35068687 -27.37812506 30.95125002 -30 32 C-30 32.66 -30 33.32 -30 34 C-30.66 34 -31.32 34 -32 34 C-32 34.66 -32 35.32 -32 36 C-33.98 36.495 -33.98 36.495 -36 37 C-36 36.34 -36 35.68 -36 35 C-35.34 35 -34.68 35 -34 35 C-34 34.34 -34 33.68 -34 33 C-33.34 33 -32.68 33 -32 33 C-31.34 31.68 -30.68 30.36 -30 29 C-29.34 29 -28.68 29 -28 29 C-28 28.34 -28 27.68 -28 27 C-27.34 27 -26.68 27 -26 27 C-25.34 25.68 -24.68 24.36 -24 23 C-23.34 23 -22.68 23 -22 23 C-22 22.34 -22 21.68 -22 21 C-21.34 21 -20.68 21 -20 21 C-20 20.34 -20 19.68 -20 19 C-19.34 19 -18.68 19 -18 19 C-18 18.34 -18 17.68 -18 17 C-17.34 17 -16.68 17 -16 17 C-16 16.34 -16 15.68 -16 15 C-15.34 15 -14.68 15 -14 15 C-14 14.34 -14 13.68 -14 13 C-13.34 13 -12.68 13 -12 13 C-12 12.34 -12 11.68 -12 11 C-11.34 11 -10.68 11 -10 11 C-9.63261719 10.12601563 -9.63261719 10.12601563 -9.2578125 9.234375 C-7.79564126 6.63697764 -6.15259586 5.16024169 -3.875 3.25 C-3.15054688 2.63640625 -2.42609375 2.0228125 -1.6796875 1.390625 C-1.12539063 0.93171875 -0.57109375 0.4728125 0 0 Z " fill="#C1DEF1" transform="translate(295,704)"/>
<path d="M0 0 C0 3.74016583 -0.9341591 4.45276193 -3.375 7.1875 C-4.00148438 7.90292969 -4.62796875 8.61835937 -5.2734375 9.35546875 C-7 11 -7 11 -9 11 C-9.21914063 11.54269531 -9.43828125 12.08539062 -9.6640625 12.64453125 C-11.44470987 15.78409373 -13.8353582 18.16456637 -16.375 20.6875 C-16.85710937 21.18572266 -17.33921875 21.68394531 -17.8359375 22.19726562 C-20.39323992 24.75804264 -22.31046316 26.62405193 -26 27 C-26 26.34 -26 25.68 -26 25 C-25.34 25 -24.68 25 -24 25 C-24 24.34 -24 23.68 -24 23 C-23.34 23 -22.68 23 -22 23 C-22 22.34 -22 21.68 -22 21 C-21.34 21 -20.68 21 -20 21 C-20 20.34 -20 19.68 -20 19 C-19.34 19 -18.68 19 -18 19 C-17.7525 18.38125 -17.505 17.7625 -17.25 17.125 C-15.76259631 14.59641373 -14.56321991 14.28160996 -12 13 C-11.73445313 12.41734375 -11.46890625 11.8346875 -11.1953125 11.234375 C-9.59264578 8.23854048 -7.42817133 6.47584168 -4.875 4.25 C-3.96492188 3.45078125 -3.05484375 2.6515625 -2.1171875 1.828125 C-1.41851562 1.22484375 -0.71984375 0.6215625 0 0 Z " fill="#C0DEF1" transform="translate(373,626)"/>
<path d="M0 0 C0.66 0.33 1.32 0.66 2 1 C-0.27691969 5.2219494 -3.16925368 8.47276085 -6.5625 11.8125 C-7.05685547 12.31458984 -7.55121094 12.81667969 -8.06054688 13.33398438 C-11.74651361 17 -11.74651361 17 -14 17 C-14 17.66 -14 18.32 -14 19 C-15.32 19.33 -16.64 19.66 -18 20 C-18 19.34 -18 18.68 -18 18 C-17.34 18 -16.68 18 -16 18 C-16 17.34 -16 16.68 -16 16 C-15.34 16 -14.68 16 -14 16 C-14 15.34 -14 14.68 -14 14 C-13.34 14 -12.68 14 -12 14 C-12 13.34 -12 12.68 -12 12 C-11.34 12 -10.68 12 -10 12 C-9.34 10.68 -8.68 9.36 -8 8 C-7.34 8 -6.68 8 -6 8 C-6 7.34 -6 6.68 -6 6 C-5.34 6 -4.68 6 -4 6 C-3.566875 5.071875 -3.566875 5.071875 -3.125 4.125 C-2 2 -2 2 0 0 Z " fill="#BFDDF1" transform="translate(400,598)"/>
<path d="M0 0 C0.66 0.33 1.32 0.66 2 1 C-4.64206642 10.12177122 -4.64206642 10.12177122 -8 13 C-8.66 13 -9.32 13 -10 13 C-10 13.66 -10 14.32 -10 15 C-10.66 15 -11.32 15 -12 15 C-12 15.66 -12 16.32 -12 17 C-12.66 17 -13.32 17 -14 17 C-14 17.66 -14 18.32 -14 19 C-14.66 19 -15.32 19 -16 19 C-16 19.66 -16 20.32 -16 21 C-17.32 21.33 -18.64 21.66 -20 22 C-20 21.34 -20 20.68 -20 20 C-19.34 20 -18.68 20 -18 20 C-18 19.34 -18 18.68 -18 18 C-17.34 18 -16.68 18 -16 18 C-16 17.34 -16 16.68 -16 16 C-15.34 16 -14.68 16 -14 16 C-14 15.34 -14 14.68 -14 14 C-13.34 14 -12.68 14 -12 14 C-12 13.34 -12 12.68 -12 12 C-11.34 12 -10.68 12 -10 12 C-9.34 10.68 -8.68 9.36 -8 8 C-7.34 8 -6.68 8 -6 8 C-6 7.34 -6 6.68 -6 6 C-5.34 6 -4.68 6 -4 6 C-4 5.34 -4 4.68 -4 4 C-3.34 4 -2.68 4 -2 4 C-1.34 2.68 -0.68 1.36 0 0 Z " fill="#BBDBF0" transform="translate(322,676)"/>
<path d="M0 0 C0.99 0 1.98 0 3 0 C3 0.66 3 1.32 3 2 C2.401875 2.226875 1.80375 2.45375 1.1875 2.6875 C-1.58360904 4.35016542 -2.35824743 6.24185568 -4 9 C-5.6396721 10.36639342 -7.30327614 11.70513179 -9 13 C-9.33 13.66 -9.66 14.32 -10 15 C-12.0625 15.625 -12.0625 15.625 -14 16 C-14 15.34 -14 14.68 -14 14 C-13.34 14 -12.68 14 -12 14 C-12 13.34 -12 12.68 -12 12 C-10.125 9.875 -10.125 9.875 -8 8 C-7.34 8 -6.68 8 -6 8 C-6 7.34 -6 6.68 -6 6 C-5.34 6 -4.68 6 -4 6 C-3.566875 5.071875 -3.566875 5.071875 -3.125 4.125 C-2 2 -2 2 0 0 Z " fill="#B2D6EE" transform="translate(425,573)"/>
<path d="M0 0 C0 3 0 3 -1.375 4.6875 C-3 6 -3 6 -5 6 C-5 6.66 -5 7.32 -5 8 C-6.32 8.33 -7.64 8.66 -9 9 C-8.34 7.68 -7.68 6.36 -7 5 C-6.34 5 -5.68 5 -5 5 C-4.731875 4.360625 -4.46375 3.72125 -4.1875 3.0625 C-3 1 -3 1 0 0 Z " fill="#C4E0F2" transform="translate(344,656)"/>
</svg>
